M48
METRIC,000.000
T88C0.500
T87C0.381
T86C3.111
T85C2.032
T84C0.889
T83C1.397
T82C0.711
T81C0.762
T80C1.016
T79C0.965
T78C1.200
T77C1.270
T76C1.651
%
T87
X077891Y004367
X079967Y004130
X084304Y001199
T88
X014120Y004225
T82
X025250Y042475
X025250Y039935
X025250Y037395
X025250Y034855
X032870Y042475
X032870Y039935
X032870Y037395
X032870Y034855
T81
X001370Y022975
X006370Y022975
X008246Y027921
X008246Y022921
X009646Y037029
X010354Y025321
X014646Y037029
X015354Y025321
X017620Y022975
X022620Y022975
X034570Y048145
X036120Y033975
X036120Y027975
X040570Y048145
X053620Y010475
X053620Y004475
X053714Y026673
X053714Y020673
X053854Y034436
X053854Y029436
X056283Y034320
X056283Y028320
X056300Y025675
X056300Y020675
X058734Y033813
X058734Y023653
X060488Y021445
X060546Y013621
X060596Y016221
X061500Y047225
X061500Y042225
X063346Y034713
X063346Y028713
X066120Y034725
X066120Y028725
X066250Y047225
X066250Y037065
X066488Y021445
X066546Y013621
X066596Y016221
T84
X025870Y028975
X029370Y028975
X041570Y030875
X045070Y030875
T79
X009120Y004975
X025460Y051975
X025460Y049225
X028000Y051975
X028000Y049225
X033000Y051975
X035540Y051975
X038080Y051975
X040620Y051975
X045130Y050725
X045130Y048185
X075200Y026575
X077740Y026575
X080280Y026575
X082820Y026575
T80
X025120Y045475
X033120Y045475
X049967Y046914
X049967Y044374
X049967Y041834
X049967Y039294
X049967Y036754
X049967Y034214
X049967Y031674
X049967Y029134
X049967Y026594
X049967Y024054
X049967Y021514
X049967Y018974
X049967Y016434
X049967Y013894
X049967Y011354
X049967Y008814
X070287Y036754
X070287Y034214
X070287Y031674
X070287Y029134
X070287Y026594
X070287Y024054
X070287Y021514
X070287Y018974
X070287Y016434
X070287Y013894
X070287Y011354
X070287Y008814
T78
X003646Y043921
X003646Y040421
X003646Y036921
X003646Y033421
X003646Y029921
X003646Y026421
T77
X002198Y008862
X003900Y013942
X005602Y008862
X007304Y013942
X009005Y008862
X009690Y043775
X009790Y033075
X010707Y013942
X012409Y008862
X013500Y043775
X013600Y033075
X014111Y013942
X015813Y008862
X017310Y043775
X017410Y033075
X017514Y013942
X019216Y008862
X021120Y043775
X021220Y033075
T83
X038370Y043225
X038370Y039225
X043370Y043225
X043370Y039225
T76
X009000Y051725
X009000Y048296
X018906Y051725
X018906Y048296
T85
X034866Y017841
X034866Y007841
T86
X003000Y050975
X003000Y002975
X069000Y002975
X069500Y050975
M30
