G04 start of page 11 for group -3984 idx -3984 *
G04 Title: (unknown), fab *
G04 Creator: pcb 20140316 *
G04 CreationDate: Sun 28 Jan 2018 11:29:02 PM GMT UTC *
G04 For: jeff *
G04 Format: Gerber/RS-274X *
G04 PCB-Dimensions (mm): 85.50 53.98 *
G04 PCB-Coordinate-Origin: lower left *
%MOMM*%
%FSLAX43Y43*%
%LNFAB*%
%ADD128C,0.254*%
%ADD127C,0.152*%
%ADD126R,0.203X0.203*%
%ADD125C,0.002*%
G54D125*G36*
X2086Y52033D02*X4058Y50061D01*
X3914Y49917D01*
X1942Y51889D01*
X2086Y52033D01*
G37*
G36*
X1942Y50061D02*X3914Y52033D01*
X4058Y51889D01*
X2086Y49917D01*
X1942Y50061D01*
G37*
G54D126*X2594Y51381D02*X3406D01*
X2594D02*Y50569D01*
X3406D01*
Y51381D02*Y50569D01*
X2187Y51788D02*X3813D01*
X2187D02*Y50162D01*
X3813D01*
Y51788D02*Y50162D01*
G54D125*G36*
X2086Y4033D02*X4058Y2061D01*
X3914Y1917D01*
X1942Y3889D01*
X2086Y4033D01*
G37*
G36*
X1942Y2061D02*X3914Y4033D01*
X4058Y3889D01*
X2086Y1917D01*
X1942Y2061D01*
G37*
G54D126*X2594Y3381D02*X3406D01*
X2594D02*Y2569D01*
X3406D01*
Y3381D02*Y2569D01*
X2187Y3788D02*X3813D01*
X2187D02*Y2162D01*
X3813D01*
Y3788D02*Y2162D01*
G54D125*G36*
X68086Y4033D02*X70058Y2061D01*
X69914Y1917D01*
X67942Y3889D01*
X68086Y4033D01*
G37*
G36*
X67942Y2061D02*X69914Y4033D01*
X70058Y3889D01*
X68086Y1917D01*
X67942Y2061D01*
G37*
G54D126*X68594Y3381D02*X69406D01*
X68594D02*Y2569D01*
X69406D01*
Y3381D02*Y2569D01*
X68187Y3788D02*X69813D01*
X68187D02*Y2162D01*
X69813D01*
Y3788D02*Y2162D01*
G54D125*G36*
X68586Y52033D02*X70558Y50061D01*
X70414Y49917D01*
X68442Y51889D01*
X68586Y52033D01*
G37*
G36*
X68442Y50061D02*X70414Y52033D01*
X70558Y51889D01*
X68586Y49917D01*
X68442Y50061D01*
G37*
G54D126*X69094Y51381D02*X69906D01*
X69094D02*Y50569D01*
X69906D01*
Y51381D02*Y50569D01*
X68687Y51788D02*X70313D01*
X68687D02*Y50162D01*
X70313D01*
Y51788D02*Y50162D01*
G54D125*G36*
X2896Y57891D02*X4868Y55918D01*
X4724Y55774D01*
X2752Y57747D01*
X2896Y57891D01*
G37*
G36*
X2752Y55918D02*X4724Y57891D01*
X4868Y57747D01*
X2896Y55774D01*
X2752Y55918D01*
G37*
G54D126*X3404Y57239D02*X4216D01*
X3404D02*Y56426D01*
X4216D01*
Y57239D02*Y56426D01*
X2997Y57645D02*X4623D01*
X2997D02*Y56020D01*
X4623D01*
Y57645D02*Y56020D01*
G54D127*X34290Y57404D02*Y57214D01*
X34671Y56832D01*
X35052Y57214D01*
Y57404D02*Y57214D01*
X34671Y56832D02*Y55880D01*
X35509Y56642D02*X36081D01*
X35509Y55880D02*X36271D01*
X35509Y57404D02*Y55880D01*
Y57404D02*X36271D01*
X37490D02*X37681Y57214D01*
X36919Y57404D02*X37490D01*
X36728Y57214D02*X36919Y57404D01*
X36728Y57214D02*Y56832D01*
X36919Y56642D01*
X37490D01*
X37681Y56452D01*
Y56070D01*
X37490Y55880D02*X37681Y56070D01*
X36919Y55880D02*X37490D01*
X36728Y56070D02*X36919Y55880D01*
X24892Y56642D02*X25654Y57404D01*
X24892Y56642D02*X25844D01*
X25654Y57404D02*Y55880D01*
X11430Y56070D02*X11620Y55880D01*
X11430Y57214D02*Y56070D01*
Y57214D02*X11620Y57404D01*
X12002D01*
X12192Y57214D01*
Y56070D01*
X12002Y55880D02*X12192Y56070D01*
X11620Y55880D02*X12002D01*
X11430Y56261D02*X12192Y57023D01*
X12649Y55880D02*X12840D01*
X13487D02*X13868D01*
X13678Y57404D02*Y55880D01*
X13297Y57023D02*X13678Y57404D01*
X14326Y57214D02*X14516Y57404D01*
X15088D01*
X15278Y57214D01*
Y56832D01*
X14326Y55880D02*X15278Y56832D01*
X14326Y55880D02*X15278D01*
X15735Y57214D02*X15926Y57404D01*
X16307D01*
X16497Y57214D01*
Y56070D01*
X16307Y55880D02*X16497Y56070D01*
X15926Y55880D02*X16307D01*
X15735Y56070D02*X15926Y55880D01*
Y56642D02*X16497D01*
X34866Y19060D02*Y16622D01*
X33647Y17841D02*X36085D01*
X34460Y18247D02*X35272D01*
X34460D02*Y17435D01*
X35272D01*
Y18247D02*Y17435D01*
X34053Y18654D02*X35679D01*
X34053D02*Y17028D01*
X35679D01*
Y18654D02*Y17028D01*
X34866Y9060D02*Y6622D01*
X33647Y7841D02*X36085D01*
X34460Y8247D02*X35272D01*
X34460D02*Y7435D01*
X35272D01*
Y8247D02*Y7435D01*
X34053Y8654D02*X35679D01*
X34053D02*Y7028D01*
X35679D01*
Y8654D02*Y7028D01*
X3810Y61862D02*Y59423D01*
X2591Y60642D02*X5029D01*
X3404Y61049D02*X4216D01*
X3404D02*Y60236D01*
X4216D01*
Y61049D02*Y60236D01*
X2997Y61455D02*X4623D01*
X2997D02*Y59830D01*
X4623D01*
Y61455D02*Y59830D01*
X34290Y61214D02*Y61024D01*
X34671Y60642D01*
X35052Y61024D01*
Y61214D02*Y61024D01*
X34671Y60642D02*Y59690D01*
X35509Y60452D02*X36081D01*
X35509Y59690D02*X36271D01*
X35509Y61214D02*Y59690D01*
Y61214D02*X36271D01*
X37490D02*X37681Y61024D01*
X36919Y61214D02*X37490D01*
X36728Y61024D02*X36919Y61214D01*
X36728Y61024D02*Y60642D01*
X36919Y60452D01*
X37490D01*
X37681Y60262D01*
Y59880D01*
X37490Y59690D02*X37681Y59880D01*
X36919Y59690D02*X37490D01*
X36728Y59880D02*X36919Y59690D01*
X24892Y61024D02*X25082Y61214D01*
X25654D01*
X25844Y61024D01*
Y60642D01*
X24892Y59690D02*X25844Y60642D01*
X24892Y59690D02*X25844D01*
X11430Y59880D02*X11620Y59690D01*
X11430Y61024D02*Y59880D01*
Y61024D02*X11620Y61214D01*
X12002D01*
X12192Y61024D01*
Y59880D01*
X12002Y59690D02*X12192Y59880D01*
X11620Y59690D02*X12002D01*
X11430Y60071D02*X12192Y60833D01*
X12649Y59690D02*X12840D01*
X13297Y59880D02*X13487Y59690D01*
X13297Y61024D02*Y59880D01*
Y61024D02*X13487Y61214D01*
X13868D01*
X14059Y61024D01*
Y59880D01*
X13868Y59690D02*X14059Y59880D01*
X13487Y59690D02*X13868D01*
X13297Y60071D02*X14059Y60833D01*
X14516Y59880D02*X14707Y59690D01*
X14516Y60262D02*Y59880D01*
Y60262D02*X14707Y60452D01*
X15088D01*
X15278Y60262D01*
Y59880D01*
X15088Y59690D02*X15278Y59880D01*
X14707Y59690D02*X15088D01*
X14516Y60642D02*X14707Y60452D01*
X14516Y61024D02*Y60642D01*
Y61024D02*X14707Y61214D01*
X15088D01*
X15278Y61024D01*
Y60642D01*
X15088Y60452D02*X15278Y60642D01*
X15735Y59880D02*X15926Y59690D01*
X15735Y61024D02*Y59880D01*
Y61024D02*X15926Y61214D01*
X16307D01*
X16497Y61024D01*
Y59880D01*
X16307Y59690D02*X16497Y59880D01*
X15926Y59690D02*X16307D01*
X15735Y60071D02*X16497Y60833D01*
X9000Y48296D02*Y47077D01*
Y48296D02*X10057Y48906D01*
X9000Y48296D02*X7943Y48906D01*
X8594Y48296D02*G75*G03X9406Y48296I406J0D01*G01*
G75*G03X8594Y48296I-406J0D01*G01*
X8187D02*G75*G03X9813Y48296I813J0D01*G01*
G75*G03X8187Y48296I-813J0D01*G01*
X9000Y51725D02*Y50506D01*
Y51725D02*X10057Y52335D01*
X9000Y51725D02*X7943Y52335D01*
X8594Y51725D02*G75*G03X9406Y51725I406J0D01*G01*
G75*G03X8594Y51725I-406J0D01*G01*
X8187D02*G75*G03X9813Y51725I813J0D01*G01*
G75*G03X8187Y51725I-813J0D01*G01*
X18906D02*Y50506D01*
Y51725D02*X19963Y52335D01*
X18906Y51725D02*X17849Y52335D01*
X18500Y51725D02*G75*G03X19312Y51725I406J0D01*G01*
G75*G03X18500Y51725I-406J0D01*G01*
X18093D02*G75*G03X19719Y51725I813J0D01*G01*
G75*G03X18093Y51725I-813J0D01*G01*
X18906Y48296D02*Y47077D01*
Y48296D02*X19963Y48906D01*
X18906Y48296D02*X17849Y48906D01*
X18500Y48296D02*G75*G03X19312Y48296I406J0D01*G01*
G75*G03X18500Y48296I-406J0D01*G01*
X18093D02*G75*G03X19719Y48296I813J0D01*G01*
G75*G03X18093Y48296I-813J0D01*G01*
X3810Y64452D02*Y63233D01*
Y64452D02*X4867Y65062D01*
X3810Y64452D02*X2753Y65062D01*
X3404Y64452D02*G75*G03X4216Y64452I406J0D01*G01*
G75*G03X3404Y64452I-406J0D01*G01*
X2997D02*G75*G03X4623Y64452I813J0D01*G01*
G75*G03X2997Y64452I-813J0D01*G01*
X34290Y65024D02*Y64834D01*
X34671Y64452D01*
X35052Y64834D01*
Y65024D02*Y64834D01*
X34671Y64452D02*Y63500D01*
X35509Y64262D02*X36081D01*
X35509Y63500D02*X36271D01*
X35509Y65024D02*Y63500D01*
Y65024D02*X36271D01*
X37490D02*X37681Y64834D01*
X36919Y65024D02*X37490D01*
X36728Y64834D02*X36919Y65024D01*
X36728Y64834D02*Y64452D01*
X36919Y64262D01*
X37490D01*
X37681Y64072D01*
Y63690D01*
X37490Y63500D02*X37681Y63690D01*
X36919Y63500D02*X37490D01*
X36728Y63690D02*X36919Y63500D01*
X24892Y64262D02*X25654Y65024D01*
X24892Y64262D02*X25844D01*
X25654Y65024D02*Y63500D01*
X11430Y63690D02*X11620Y63500D01*
X11430Y64834D02*Y63690D01*
Y64834D02*X11620Y65024D01*
X12002D01*
X12192Y64834D01*
Y63690D01*
X12002Y63500D02*X12192Y63690D01*
X11620Y63500D02*X12002D01*
X11430Y63881D02*X12192Y64643D01*
X12649Y63500D02*X12840D01*
X13297Y63690D02*X13487Y63500D01*
X13297Y64834D02*Y63690D01*
Y64834D02*X13487Y65024D01*
X13868D01*
X14059Y64834D01*
Y63690D01*
X13868Y63500D02*X14059Y63690D01*
X13487Y63500D02*X13868D01*
X13297Y63881D02*X14059Y64643D01*
X15088Y65024D02*X15278Y64834D01*
X14707Y65024D02*X15088D01*
X14516Y64834D02*X14707Y65024D01*
X14516Y64834D02*Y63690D01*
X14707Y63500D01*
X15088Y64262D02*X15278Y64072D01*
X14516Y64262D02*X15088D01*
X14707Y63500D02*X15088D01*
X15278Y63690D01*
Y64072D02*Y63690D01*
X15735Y65024D02*X16497D01*
X15735D02*Y64262D01*
X15926Y64452D01*
X16307D01*
X16497Y64262D01*
Y63690D01*
X16307Y63500D02*X16497Y63690D01*
X15926Y63500D02*X16307D01*
X15735Y63690D02*X15926Y63500D01*
X37964Y43631D02*X38776D01*
X37964D02*Y42819D01*
X38776D01*
Y43631D02*Y42819D01*
X37557Y44038D02*X39183D01*
X37557D02*Y42412D01*
X39183D01*
Y44038D02*Y42412D01*
X42964Y43631D02*X43776D01*
X42964D02*Y42819D01*
X43776D01*
Y43631D02*Y42819D01*
X42557Y44038D02*X44183D01*
X42557D02*Y42412D01*
X44183D01*
Y44038D02*Y42412D01*
X42964Y39631D02*X43776D01*
X42964D02*Y38819D01*
X43776D01*
Y39631D02*Y38819D01*
X42557Y40038D02*X44183D01*
X42557D02*Y38412D01*
X44183D01*
Y40038D02*Y38412D01*
X37964Y39631D02*X38776D01*
X37964D02*Y38819D01*
X38776D01*
Y39631D02*Y38819D01*
X37557Y40038D02*X39183D01*
X37557D02*Y38412D01*
X39183D01*
Y40038D02*Y38412D01*
X3404Y68669D02*X4216D01*
X3404D02*Y67856D01*
X4216D01*
Y68669D02*Y67856D01*
X2997Y69075D02*X4623D01*
X2997D02*Y67450D01*
X4623D01*
Y69075D02*Y67450D01*
X34290Y68834D02*Y68644D01*
X34671Y68262D01*
X35052Y68644D01*
Y68834D02*Y68644D01*
X34671Y68262D02*Y67310D01*
X35509Y68072D02*X36081D01*
X35509Y67310D02*X36271D01*
X35509Y68834D02*Y67310D01*
Y68834D02*X36271D01*
X37490D02*X37681Y68644D01*
X36919Y68834D02*X37490D01*
X36728Y68644D02*X36919Y68834D01*
X36728Y68644D02*Y68262D01*
X36919Y68072D01*
X37490D01*
X37681Y67882D01*
Y67500D01*
X37490Y67310D02*X37681Y67500D01*
X36919Y67310D02*X37490D01*
X36728Y67500D02*X36919Y67310D01*
X24892Y68072D02*X25654Y68834D01*
X24892Y68072D02*X25844D01*
X25654Y68834D02*Y67310D01*
X11430Y67500D02*X11620Y67310D01*
X11430Y68644D02*Y67500D01*
Y68644D02*X11620Y68834D01*
X12002D01*
X12192Y68644D01*
Y67500D01*
X12002Y67310D02*X12192Y67500D01*
X11620Y67310D02*X12002D01*
X11430Y67691D02*X12192Y68453D01*
X12649Y67310D02*X12840D01*
X13297Y67500D02*X13487Y67310D01*
X13297Y68644D02*Y67500D01*
Y68644D02*X13487Y68834D01*
X13868D01*
X14059Y68644D01*
Y67500D01*
X13868Y67310D02*X14059Y67500D01*
X13487Y67310D02*X13868D01*
X13297Y67691D02*X14059Y68453D01*
X14516Y68834D02*X15278D01*
X14516D02*Y68072D01*
X14707Y68262D01*
X15088D01*
X15278Y68072D01*
Y67500D01*
X15088Y67310D02*X15278Y67500D01*
X14707Y67310D02*X15088D01*
X14516Y67500D02*X14707Y67310D01*
X15735Y68834D02*X16497D01*
X15735D02*Y68072D01*
X15926Y68262D01*
X16307D01*
X16497Y68072D01*
Y67500D01*
X16307Y67310D02*X16497Y67500D01*
X15926Y67310D02*X16307D01*
X15735Y67500D02*X15926Y67310D01*
X20917Y43775D02*G75*G03X21323Y43775I203J0D01*G01*
G75*G03X20917Y43775I-203J0D01*G01*
X20510D02*G75*G03X21730Y43775I610J0D01*G01*
G75*G03X20510Y43775I-610J0D01*G01*
X17107D02*G75*G03X17513Y43775I203J0D01*G01*
G75*G03X17107Y43775I-203J0D01*G01*
X16700D02*G75*G03X17920Y43775I610J0D01*G01*
G75*G03X16700Y43775I-610J0D01*G01*
X13297D02*G75*G03X13703Y43775I203J0D01*G01*
G75*G03X13297Y43775I-203J0D01*G01*
X12890D02*G75*G03X14110Y43775I610J0D01*G01*
G75*G03X12890Y43775I-610J0D01*G01*
X9487D02*G75*G03X9893Y43775I203J0D01*G01*
G75*G03X9487Y43775I-203J0D01*G01*
X9080D02*G75*G03X10300Y43775I610J0D01*G01*
G75*G03X9080Y43775I-610J0D01*G01*
X21017Y33075D02*G75*G03X21423Y33075I203J0D01*G01*
G75*G03X21017Y33075I-203J0D01*G01*
X20610D02*G75*G03X21830Y33075I610J0D01*G01*
G75*G03X20610Y33075I-610J0D01*G01*
X17207D02*G75*G03X17613Y33075I203J0D01*G01*
G75*G03X17207Y33075I-203J0D01*G01*
X16800D02*G75*G03X18020Y33075I610J0D01*G01*
G75*G03X16800Y33075I-610J0D01*G01*
X13397D02*G75*G03X13803Y33075I203J0D01*G01*
G75*G03X13397Y33075I-203J0D01*G01*
X12990D02*G75*G03X14210Y33075I610J0D01*G01*
G75*G03X12990Y33075I-610J0D01*G01*
X9587D02*G75*G03X9993Y33075I203J0D01*G01*
G75*G03X9587Y33075I-203J0D01*G01*
X9180D02*G75*G03X10400Y33075I610J0D01*G01*
G75*G03X9180Y33075I-610J0D01*G01*
X12206Y8862D02*G75*G03X12612Y8862I203J0D01*G01*
G75*G03X12206Y8862I-203J0D01*G01*
X11799D02*G75*G03X13019Y8862I610J0D01*G01*
G75*G03X11799Y8862I-610J0D01*G01*
X15609D02*G75*G03X16016Y8862I203J0D01*G01*
G75*G03X15609Y8862I-203J0D01*G01*
X15203D02*G75*G03X16422Y8862I610J0D01*G01*
G75*G03X15203Y8862I-610J0D01*G01*
X3697Y13942D02*G75*G03X4103Y13942I203J0D01*G01*
G75*G03X3697Y13942I-203J0D01*G01*
X3290D02*G75*G03X4510Y13942I610J0D01*G01*
G75*G03X3290Y13942I-610J0D01*G01*
X7100D02*G75*G03X7507Y13942I203J0D01*G01*
G75*G03X7100Y13942I-203J0D01*G01*
X6694D02*G75*G03X7913Y13942I610J0D01*G01*
G75*G03X6694Y13942I-610J0D01*G01*
X10504D02*G75*G03X10910Y13942I203J0D01*G01*
G75*G03X10504Y13942I-203J0D01*G01*
X10098D02*G75*G03X11317Y13942I610J0D01*G01*
G75*G03X10098Y13942I-610J0D01*G01*
X13908D02*G75*G03X14314Y13942I203J0D01*G01*
G75*G03X13908Y13942I-203J0D01*G01*
X13501D02*G75*G03X14720Y13942I610J0D01*G01*
G75*G03X13501Y13942I-610J0D01*G01*
X17311D02*G75*G03X17718Y13942I203J0D01*G01*
G75*G03X17311Y13942I-203J0D01*G01*
X16905D02*G75*G03X18124Y13942I610J0D01*G01*
G75*G03X16905Y13942I-610J0D01*G01*
X19013Y8862D02*G75*G03X19419Y8862I203J0D01*G01*
G75*G03X19013Y8862I-203J0D01*G01*
X18607D02*G75*G03X19826Y8862I610J0D01*G01*
G75*G03X18607Y8862I-610J0D01*G01*
X8802D02*G75*G03X9209Y8862I203J0D01*G01*
G75*G03X8802Y8862I-203J0D01*G01*
X8396D02*G75*G03X9615Y8862I610J0D01*G01*
G75*G03X8396Y8862I-610J0D01*G01*
X5399D02*G75*G03X5805Y8862I203J0D01*G01*
G75*G03X5399Y8862I-203J0D01*G01*
X4992D02*G75*G03X6211Y8862I610J0D01*G01*
G75*G03X4992Y8862I-610J0D01*G01*
X1995D02*G75*G03X2401Y8862I203J0D01*G01*
G75*G03X1995Y8862I-203J0D01*G01*
X1589D02*G75*G03X2808Y8862I610J0D01*G01*
G75*G03X1589Y8862I-610J0D01*G01*
X3607Y72072D02*G75*G03X4013Y72072I203J0D01*G01*
G75*G03X3607Y72072I-203J0D01*G01*
X3200D02*G75*G03X4420Y72072I610J0D01*G01*
G75*G03X3200Y72072I-610J0D01*G01*
X34290Y72644D02*Y72454D01*
X34671Y72072D01*
X35052Y72454D01*
Y72644D02*Y72454D01*
X34671Y72072D02*Y71120D01*
X35509Y71882D02*X36081D01*
X35509Y71120D02*X36271D01*
X35509Y72644D02*Y71120D01*
Y72644D02*X36271D01*
X37490D02*X37681Y72454D01*
X36919Y72644D02*X37490D01*
X36728Y72454D02*X36919Y72644D01*
X36728Y72454D02*Y72072D01*
X36919Y71882D01*
X37490D01*
X37681Y71692D01*
Y71310D01*
X37490Y71120D02*X37681Y71310D01*
X36919Y71120D02*X37490D01*
X36728Y71310D02*X36919Y71120D01*
X25082D02*X25464D01*
X25273Y72644D02*Y71120D01*
X24892Y72263D02*X25273Y72644D01*
X25921Y71120D02*X26683Y71882D01*
Y72454D02*Y71882D01*
X26492Y72644D02*X26683Y72454D01*
X26111Y72644D02*X26492D01*
X25921Y72454D02*X26111Y72644D01*
X25921Y72454D02*Y72072D01*
X26111Y71882D01*
X26683D01*
X11430Y71310D02*X11620Y71120D01*
X11430Y72454D02*Y71310D01*
Y72454D02*X11620Y72644D01*
X12002D01*
X12192Y72454D01*
Y71310D01*
X12002Y71120D02*X12192Y71310D01*
X11620Y71120D02*X12002D01*
X11430Y71501D02*X12192Y72263D01*
X12649Y71120D02*X12840D01*
X13297Y71310D02*X13487Y71120D01*
X13297Y72454D02*Y71310D01*
Y72454D02*X13487Y72644D01*
X13868D01*
X14059Y72454D01*
Y71310D01*
X13868Y71120D02*X14059Y71310D01*
X13487Y71120D02*X13868D01*
X13297Y71501D02*X14059Y72263D01*
X14516Y72644D02*X15278D01*
X14516D02*Y71882D01*
X14707Y72072D01*
X15088D01*
X15278Y71882D01*
Y71310D01*
X15088Y71120D02*X15278Y71310D01*
X14707Y71120D02*X15088D01*
X14516Y71310D02*X14707Y71120D01*
X15735Y71310D02*X15926Y71120D01*
X15735Y72454D02*Y71310D01*
Y72454D02*X15926Y72644D01*
X16307D01*
X16497Y72454D01*
Y71310D01*
X16307Y71120D02*X16497Y71310D01*
X15926Y71120D02*X16307D01*
X15735Y71501D02*X16497Y72263D01*
X3036Y30531D02*X4256Y29311D01*
X3036D02*X4256Y30531D01*
X3240Y30327D02*X4052D01*
X3240D02*Y29515D01*
X4052D01*
Y30327D02*Y29515D01*
X3036Y27031D02*X4256Y25811D01*
X3036D02*X4256Y27031D01*
X3240Y26827D02*X4052D01*
X3240D02*Y26015D01*
X4052D01*
Y26827D02*Y26015D01*
X3036Y37531D02*X4256Y36311D01*
X3036D02*X4256Y37531D01*
X3240Y37327D02*X4052D01*
X3240D02*Y36515D01*
X4052D01*
Y37327D02*Y36515D01*
X3036Y34031D02*X4256Y32811D01*
X3036D02*X4256Y34031D01*
X3240Y33827D02*X4052D01*
X3240D02*Y33015D01*
X4052D01*
Y33827D02*Y33015D01*
X3036Y44531D02*X4256Y43311D01*
X3036D02*X4256Y44531D01*
X3240Y44327D02*X4052D01*
X3240D02*Y43515D01*
X4052D01*
Y44327D02*Y43515D01*
X3036Y41031D02*X4256Y39811D01*
X3036D02*X4256Y41031D01*
X3240Y40827D02*X4052D01*
X3240D02*Y40015D01*
X4052D01*
Y40827D02*Y40015D01*
X3200Y76492D02*X4420Y75273D01*
X3200D02*X4420Y76492D01*
X3404Y76289D02*X4216D01*
X3404D02*Y75476D01*
X4216D01*
Y76289D02*Y75476D01*
X34290Y76454D02*Y76264D01*
X34671Y75882D01*
X35052Y76264D01*
Y76454D02*Y76264D01*
X34671Y75882D02*Y74930D01*
X35509Y75692D02*X36081D01*
X35509Y74930D02*X36271D01*
X35509Y76454D02*Y74930D01*
Y76454D02*X36271D01*
X37490D02*X37681Y76264D01*
X36919Y76454D02*X37490D01*
X36728Y76264D02*X36919Y76454D01*
X36728Y76264D02*Y75882D01*
X36919Y75692D01*
X37490D01*
X37681Y75502D01*
Y75120D01*
X37490Y74930D02*X37681Y75120D01*
X36919Y74930D02*X37490D01*
X36728Y75120D02*X36919Y74930D01*
X25464Y76454D02*X25654Y76264D01*
X25082Y76454D02*X25464D01*
X24892Y76264D02*X25082Y76454D01*
X24892Y76264D02*Y75120D01*
X25082Y74930D01*
X25464Y75692D02*X25654Y75502D01*
X24892Y75692D02*X25464D01*
X25082Y74930D02*X25464D01*
X25654Y75120D01*
Y75502D02*Y75120D01*
X11430D02*X11620Y74930D01*
X11430Y76264D02*Y75120D01*
Y76264D02*X11620Y76454D01*
X12002D01*
X12192Y76264D01*
Y75120D01*
X12002Y74930D02*X12192Y75120D01*
X11620Y74930D02*X12002D01*
X11430Y75311D02*X12192Y76073D01*
X12649Y74930D02*X12840D01*
X13297Y75120D02*X13487Y74930D01*
X13297Y76264D02*Y75120D01*
Y76264D02*X13487Y76454D01*
X13868D01*
X14059Y76264D01*
Y75120D01*
X13868Y74930D02*X14059Y75120D01*
X13487Y74930D02*X13868D01*
X13297Y75311D02*X14059Y76073D01*
X14516Y75692D02*X15278Y76454D01*
X14516Y75692D02*X15469D01*
X15278Y76454D02*Y74930D01*
X15926D02*X16878Y75882D01*
Y76454D02*Y75882D01*
X15926Y76454D02*X16878D01*
X33120Y46288D02*Y44662D01*
X32307Y45475D02*X33933D01*
X32714Y45881D02*X33526D01*
X32714D02*Y45069D01*
X33526D01*
Y45881D02*Y45069D01*
X25120Y46288D02*Y44662D01*
X24307Y45475D02*X25933D01*
X24714Y45881D02*X25526D01*
X24714D02*Y45069D01*
X25526D01*
Y45881D02*Y45069D01*
X70287Y37567D02*Y35941D01*
X69474Y36754D02*X71100D01*
X69881Y37160D02*X70693D01*
X69881D02*Y36348D01*
X70693D01*
Y37160D02*Y36348D01*
X70287Y35027D02*Y33401D01*
X69474Y34214D02*X71100D01*
X69881Y34620D02*X70693D01*
X69881D02*Y33808D01*
X70693D01*
Y34620D02*Y33808D01*
X70287Y32487D02*Y30861D01*
X69474Y31674D02*X71100D01*
X69881Y32080D02*X70693D01*
X69881D02*Y31268D01*
X70693D01*
Y32080D02*Y31268D01*
X70287Y29947D02*Y28321D01*
X69474Y29134D02*X71100D01*
X69881Y29540D02*X70693D01*
X69881D02*Y28728D01*
X70693D01*
Y29540D02*Y28728D01*
X70287Y27407D02*Y25781D01*
X69474Y26594D02*X71100D01*
X69881Y27000D02*X70693D01*
X69881D02*Y26188D01*
X70693D01*
Y27000D02*Y26188D01*
X70287Y24867D02*Y23241D01*
X69474Y24054D02*X71100D01*
X69881Y24460D02*X70693D01*
X69881D02*Y23648D01*
X70693D01*
Y24460D02*Y23648D01*
X70287Y22327D02*Y20701D01*
X69474Y21514D02*X71100D01*
X69881Y21920D02*X70693D01*
X69881D02*Y21108D01*
X70693D01*
Y21920D02*Y21108D01*
X70287Y19787D02*Y18161D01*
X69474Y18974D02*X71100D01*
X69881Y19380D02*X70693D01*
X69881D02*Y18568D01*
X70693D01*
Y19380D02*Y18568D01*
X70287Y17247D02*Y15621D01*
X69474Y16434D02*X71100D01*
X69881Y16840D02*X70693D01*
X69881D02*Y16028D01*
X70693D01*
Y16840D02*Y16028D01*
X70287Y14707D02*Y13081D01*
X69474Y13894D02*X71100D01*
X69881Y14300D02*X70693D01*
X69881D02*Y13488D01*
X70693D01*
Y14300D02*Y13488D01*
X70287Y12167D02*Y10541D01*
X69474Y11354D02*X71100D01*
X69881Y11760D02*X70693D01*
X69881D02*Y10948D01*
X70693D01*
Y11760D02*Y10948D01*
X70287Y9627D02*Y8001D01*
X69474Y8814D02*X71100D01*
X69881Y9220D02*X70693D01*
X69881D02*Y8408D01*
X70693D01*
Y9220D02*Y8408D01*
X49967Y47727D02*Y46101D01*
X49154Y46914D02*X50780D01*
X49561Y47320D02*X50373D01*
X49561D02*Y46508D01*
X50373D01*
Y47320D02*Y46508D01*
X49967Y45187D02*Y43561D01*
X49154Y44374D02*X50780D01*
X49561Y44780D02*X50373D01*
X49561D02*Y43968D01*
X50373D01*
Y44780D02*Y43968D01*
X49967Y42647D02*Y41021D01*
X49154Y41834D02*X50780D01*
X49561Y42240D02*X50373D01*
X49561D02*Y41428D01*
X50373D01*
Y42240D02*Y41428D01*
X49967Y40107D02*Y38481D01*
X49154Y39294D02*X50780D01*
X49561Y39700D02*X50373D01*
X49561D02*Y38888D01*
X50373D01*
Y39700D02*Y38888D01*
X49967Y37567D02*Y35941D01*
X49154Y36754D02*X50780D01*
X49561Y37160D02*X50373D01*
X49561D02*Y36348D01*
X50373D01*
Y37160D02*Y36348D01*
X49967Y35027D02*Y33401D01*
X49154Y34214D02*X50780D01*
X49561Y34620D02*X50373D01*
X49561D02*Y33808D01*
X50373D01*
Y34620D02*Y33808D01*
X49967Y32487D02*Y30861D01*
X49154Y31674D02*X50780D01*
X49561Y32080D02*X50373D01*
X49561D02*Y31268D01*
X50373D01*
Y32080D02*Y31268D01*
X49967Y29947D02*Y28321D01*
X49154Y29134D02*X50780D01*
X49561Y29540D02*X50373D01*
X49561D02*Y28728D01*
X50373D01*
Y29540D02*Y28728D01*
X49967Y27407D02*Y25781D01*
X49154Y26594D02*X50780D01*
X49561Y27000D02*X50373D01*
X49561D02*Y26188D01*
X50373D01*
Y27000D02*Y26188D01*
X49967Y24867D02*Y23241D01*
X49154Y24054D02*X50780D01*
X49561Y24460D02*X50373D01*
X49561D02*Y23648D01*
X50373D01*
Y24460D02*Y23648D01*
X49967Y22327D02*Y20701D01*
X49154Y21514D02*X50780D01*
X49561Y21920D02*X50373D01*
X49561D02*Y21108D01*
X50373D01*
Y21920D02*Y21108D01*
X49967Y19787D02*Y18161D01*
X49154Y18974D02*X50780D01*
X49561Y19380D02*X50373D01*
X49561D02*Y18568D01*
X50373D01*
Y19380D02*Y18568D01*
X49967Y17247D02*Y15621D01*
X49154Y16434D02*X50780D01*
X49561Y16840D02*X50373D01*
X49561D02*Y16028D01*
X50373D01*
Y16840D02*Y16028D01*
X49967Y14707D02*Y13081D01*
X49154Y13894D02*X50780D01*
X49561Y14300D02*X50373D01*
X49561D02*Y13488D01*
X50373D01*
Y14300D02*Y13488D01*
X49967Y12167D02*Y10541D01*
X49154Y11354D02*X50780D01*
X49561Y11760D02*X50373D01*
X49561D02*Y10948D01*
X50373D01*
Y11760D02*Y10948D01*
X49967Y9627D02*Y8001D01*
X49154Y8814D02*X50780D01*
X49561Y9220D02*X50373D01*
X49561D02*Y8408D01*
X50373D01*
Y9220D02*Y8408D01*
X3810Y80505D02*Y78880D01*
X2997Y79692D02*X4623D01*
X3404Y80099D02*X4216D01*
X3404D02*Y79286D01*
X4216D01*
Y80099D02*Y79286D01*
X34290Y80264D02*Y80074D01*
X34671Y79692D01*
X35052Y80074D01*
Y80264D02*Y80074D01*
X34671Y79692D02*Y78740D01*
X35509Y79502D02*X36081D01*
X35509Y78740D02*X36271D01*
X35509Y80264D02*Y78740D01*
Y80264D02*X36271D01*
X37490D02*X37681Y80074D01*
X36919Y80264D02*X37490D01*
X36728Y80074D02*X36919Y80264D01*
X36728Y80074D02*Y79692D01*
X36919Y79502D01*
X37490D01*
X37681Y79312D01*
Y78930D01*
X37490Y78740D02*X37681Y78930D01*
X36919Y78740D02*X37490D01*
X36728Y78930D02*X36919Y78740D01*
X24892Y80074D02*X25082Y80264D01*
X25464D01*
X25654Y80074D01*
Y78930D01*
X25464Y78740D02*X25654Y78930D01*
X25082Y78740D02*X25464D01*
X24892Y78930D02*X25082Y78740D01*
Y79502D02*X25654D01*
X26111Y78930D02*X26302Y78740D01*
X26111Y80074D02*Y78930D01*
Y80074D02*X26302Y80264D01*
X26683D01*
X26873Y80074D01*
Y78930D01*
X26683Y78740D02*X26873Y78930D01*
X26302Y78740D02*X26683D01*
X26111Y79121D02*X26873Y79883D01*
X11430Y78930D02*X11620Y78740D01*
X11430Y80074D02*Y78930D01*
Y80074D02*X11620Y80264D01*
X12002D01*
X12192Y80074D01*
Y78930D01*
X12002Y78740D02*X12192Y78930D01*
X11620Y78740D02*X12002D01*
X11430Y79121D02*X12192Y79883D01*
X12649Y78740D02*X12840D01*
X13297Y78930D02*X13487Y78740D01*
X13297Y80074D02*Y78930D01*
Y80074D02*X13487Y80264D01*
X13868D01*
X14059Y80074D01*
Y78930D01*
X13868Y78740D02*X14059Y78930D01*
X13487Y78740D02*X13868D01*
X13297Y79121D02*X14059Y79883D01*
X14516Y79502D02*X15278Y80264D01*
X14516Y79502D02*X15469D01*
X15278Y80264D02*Y78740D01*
X15926Y78930D02*X16116Y78740D01*
X15926Y80074D02*Y78930D01*
Y80074D02*X16116Y80264D01*
X16497D01*
X16688Y80074D01*
Y78930D01*
X16497Y78740D02*X16688Y78930D01*
X16116Y78740D02*X16497D01*
X15926Y79121D02*X16688Y79883D01*
X9120Y4975D02*Y4162D01*
Y4975D02*X9824Y5381D01*
X9120Y4975D02*X8416Y5381D01*
X8714Y4975D02*G75*G03X9526Y4975I406J0D01*G01*
G75*G03X8714Y4975I-406J0D01*G01*
X33000Y51975D02*Y51162D01*
Y51975D02*X33704Y52381D01*
X33000Y51975D02*X32296Y52381D01*
X32594Y51975D02*G75*G03X33406Y51975I406J0D01*G01*
G75*G03X32594Y51975I-406J0D01*G01*
X35540D02*Y51162D01*
Y51975D02*X36244Y52381D01*
X35540Y51975D02*X34836Y52381D01*
X35134Y51975D02*G75*G03X35946Y51975I406J0D01*G01*
G75*G03X35134Y51975I-406J0D01*G01*
X38080D02*Y51162D01*
Y51975D02*X38784Y52381D01*
X38080Y51975D02*X37376Y52381D01*
X37674Y51975D02*G75*G03X38486Y51975I406J0D01*G01*
G75*G03X37674Y51975I-406J0D01*G01*
X40620D02*Y51162D01*
Y51975D02*X41324Y52381D01*
X40620Y51975D02*X39916Y52381D01*
X40214Y51975D02*G75*G03X41026Y51975I406J0D01*G01*
G75*G03X40214Y51975I-406J0D01*G01*
X75200Y26575D02*Y25762D01*
Y26575D02*X75904Y26981D01*
X75200Y26575D02*X74496Y26981D01*
X74794Y26575D02*G75*G03X75606Y26575I406J0D01*G01*
G75*G03X74794Y26575I-406J0D01*G01*
X77740D02*Y25762D01*
Y26575D02*X78444Y26981D01*
X77740Y26575D02*X77036Y26981D01*
X77334Y26575D02*G75*G03X78146Y26575I406J0D01*G01*
G75*G03X77334Y26575I-406J0D01*G01*
X80280D02*Y25762D01*
Y26575D02*X80984Y26981D01*
X80280Y26575D02*X79576Y26981D01*
X79874Y26575D02*G75*G03X80686Y26575I406J0D01*G01*
G75*G03X79874Y26575I-406J0D01*G01*
X82820D02*Y25762D01*
Y26575D02*X83524Y26981D01*
X82820Y26575D02*X82116Y26981D01*
X82414Y26575D02*G75*G03X83226Y26575I406J0D01*G01*
G75*G03X82414Y26575I-406J0D01*G01*
X45130Y50725D02*Y49912D01*
Y50725D02*X45834Y51131D01*
X45130Y50725D02*X44426Y51131D01*
X44724Y50725D02*G75*G03X45536Y50725I406J0D01*G01*
G75*G03X44724Y50725I-406J0D01*G01*
X45130Y48185D02*Y47372D01*
Y48185D02*X45834Y48591D01*
X45130Y48185D02*X44426Y48591D01*
X44724Y48185D02*G75*G03X45536Y48185I406J0D01*G01*
G75*G03X44724Y48185I-406J0D01*G01*
X25460Y49225D02*Y48412D01*
Y49225D02*X26164Y49631D01*
X25460Y49225D02*X24756Y49631D01*
X25054Y49225D02*G75*G03X25866Y49225I406J0D01*G01*
G75*G03X25054Y49225I-406J0D01*G01*
X28000D02*Y48412D01*
Y49225D02*X28704Y49631D01*
X28000Y49225D02*X27296Y49631D01*
X27594Y49225D02*G75*G03X28406Y49225I406J0D01*G01*
G75*G03X27594Y49225I-406J0D01*G01*
X25460Y51975D02*Y51162D01*
Y51975D02*X26164Y52381D01*
X25460Y51975D02*X24756Y52381D01*
X25054Y51975D02*G75*G03X25866Y51975I406J0D01*G01*
G75*G03X25054Y51975I-406J0D01*G01*
X28000D02*Y51162D01*
Y51975D02*X28704Y52381D01*
X28000Y51975D02*X27296Y52381D01*
X27594Y51975D02*G75*G03X28406Y51975I406J0D01*G01*
G75*G03X27594Y51975I-406J0D01*G01*
X3810Y83502D02*Y82690D01*
Y83502D02*X4514Y83909D01*
X3810Y83502D02*X3106Y83909D01*
X3404Y83502D02*G75*G03X4216Y83502I406J0D01*G01*
G75*G03X3404Y83502I-406J0D01*G01*
X34290Y84074D02*Y83884D01*
X34671Y83502D01*
X35052Y83884D01*
Y84074D02*Y83884D01*
X34671Y83502D02*Y82550D01*
X35509Y83312D02*X36081D01*
X35509Y82550D02*X36271D01*
X35509Y84074D02*Y82550D01*
Y84074D02*X36271D01*
X37490D02*X37681Y83884D01*
X36919Y84074D02*X37490D01*
X36728Y83884D02*X36919Y84074D01*
X36728Y83884D02*Y83502D01*
X36919Y83312D01*
X37490D01*
X37681Y83122D01*
Y82740D01*
X37490Y82550D02*X37681Y82740D01*
X36919Y82550D02*X37490D01*
X36728Y82740D02*X36919Y82550D01*
X25082D02*X25464D01*
X25273Y84074D02*Y82550D01*
X24892Y83693D02*X25273Y84074D01*
X25921D02*X26683D01*
X25921D02*Y83312D01*
X26111Y83502D01*
X26492D01*
X26683Y83312D01*
Y82740D01*
X26492Y82550D02*X26683Y82740D01*
X26111Y82550D02*X26492D01*
X25921Y82740D02*X26111Y82550D01*
X11430Y82740D02*X11620Y82550D01*
X11430Y83884D02*Y82740D01*
Y83884D02*X11620Y84074D01*
X12002D01*
X12192Y83884D01*
Y82740D01*
X12002Y82550D02*X12192Y82740D01*
X11620Y82550D02*X12002D01*
X11430Y82931D02*X12192Y83693D01*
X12649Y82550D02*X12840D01*
X13297Y82740D02*X13487Y82550D01*
X13297Y83884D02*Y82740D01*
Y83884D02*X13487Y84074D01*
X13868D01*
X14059Y83884D01*
Y82740D01*
X13868Y82550D02*X14059Y82740D01*
X13487Y82550D02*X13868D01*
X13297Y82931D02*X14059Y83693D01*
X14516Y83884D02*X14707Y84074D01*
X15088D01*
X15278Y83884D01*
Y82740D01*
X15088Y82550D02*X15278Y82740D01*
X14707Y82550D02*X15088D01*
X14516Y82740D02*X14707Y82550D01*
Y83312D02*X15278D01*
X15735Y82740D02*X15926Y82550D01*
X15735Y83122D02*Y82740D01*
Y83122D02*X15926Y83312D01*
X16307D01*
X16497Y83122D01*
Y82740D01*
X16307Y82550D02*X16497Y82740D01*
X15926Y82550D02*X16307D01*
X15735Y83502D02*X15926Y83312D01*
X15735Y83884D02*Y83502D01*
Y83884D02*X15926Y84074D01*
X16307D01*
X16497Y83884D01*
Y83502D01*
X16307Y83312D02*X16497Y83502D01*
X25464Y29381D02*X26276D01*
X25464D02*Y28569D01*
X26276D01*
Y29381D02*Y28569D01*
X28964Y29381D02*X29776D01*
X28964D02*Y28569D01*
X29776D01*
Y29381D02*Y28569D01*
X41164Y31281D02*X41976D01*
X41164D02*Y30469D01*
X41976D01*
Y31281D02*Y30469D01*
X44664Y31281D02*X45476D01*
X44664D02*Y30469D01*
X45476D01*
Y31281D02*Y30469D01*
X3404Y87719D02*X4216D01*
X3404D02*Y86906D01*
X4216D01*
Y87719D02*Y86906D01*
X34290Y87884D02*Y87694D01*
X34671Y87312D01*
X35052Y87694D01*
Y87884D02*Y87694D01*
X34671Y87312D02*Y86360D01*
X35509Y87122D02*X36081D01*
X35509Y86360D02*X36271D01*
X35509Y87884D02*Y86360D01*
Y87884D02*X36271D01*
X37490D02*X37681Y87694D01*
X36919Y87884D02*X37490D01*
X36728Y87694D02*X36919Y87884D01*
X36728Y87694D02*Y87312D01*
X36919Y87122D01*
X37490D01*
X37681Y86932D01*
Y86550D01*
X37490Y86360D02*X37681Y86550D01*
X36919Y86360D02*X37490D01*
X36728Y86550D02*X36919Y86360D01*
X24892Y87122D02*X25654Y87884D01*
X24892Y87122D02*X25844D01*
X25654Y87884D02*Y86360D01*
X11430Y86550D02*X11620Y86360D01*
X11430Y87694D02*Y86550D01*
Y87694D02*X11620Y87884D01*
X12002D01*
X12192Y87694D01*
Y86550D01*
X12002Y86360D02*X12192Y86550D01*
X11620Y86360D02*X12002D01*
X11430Y86741D02*X12192Y87503D01*
X12649Y86360D02*X12840D01*
X13297Y86550D02*X13487Y86360D01*
X13297Y87694D02*Y86550D01*
Y87694D02*X13487Y87884D01*
X13868D01*
X14059Y87694D01*
Y86550D01*
X13868Y86360D02*X14059Y86550D01*
X13487Y86360D02*X13868D01*
X13297Y86741D02*X14059Y87503D01*
X14516Y87694D02*X14707Y87884D01*
X15088D01*
X15278Y87694D01*
Y86550D01*
X15088Y86360D02*X15278Y86550D01*
X14707Y86360D02*X15088D01*
X14516Y86550D02*X14707Y86360D01*
Y87122D02*X15278D01*
X15735Y87884D02*X16497D01*
X15735D02*Y87122D01*
X15926Y87312D01*
X16307D01*
X16497Y87122D01*
Y86550D01*
X16307Y86360D02*X16497Y86550D01*
X15926Y86360D02*X16307D01*
X15735Y86550D02*X15926Y86360D01*
X53510Y26673D02*G75*G03X53917Y26673I203J0D01*G01*
G75*G03X53510Y26673I-203J0D01*G01*
Y20673D02*G75*G03X53917Y20673I203J0D01*G01*
G75*G03X53510Y20673I-203J0D01*G01*
X66284Y21445D02*G75*G03X66691Y21445I203J0D01*G01*
G75*G03X66284Y21445I-203J0D01*G01*
X60284D02*G75*G03X60691Y21445I203J0D01*G01*
G75*G03X60284Y21445I-203J0D01*G01*
X65917Y34725D02*G75*G03X66323Y34725I203J0D01*G01*
G75*G03X65917Y34725I-203J0D01*G01*
Y28725D02*G75*G03X66323Y28725I203J0D01*G01*
G75*G03X65917Y28725I-203J0D01*G01*
X53417Y10475D02*G75*G03X53823Y10475I203J0D01*G01*
G75*G03X53417Y10475I-203J0D01*G01*
Y4475D02*G75*G03X53823Y4475I203J0D01*G01*
G75*G03X53417Y4475I-203J0D01*G01*
X8043Y22921D02*G75*G03X8449Y22921I203J0D01*G01*
G75*G03X8043Y22921I-203J0D01*G01*
Y27921D02*G75*G03X8449Y27921I203J0D01*G01*
G75*G03X8043Y27921I-203J0D01*G01*
X9443Y37029D02*G75*G03X9849Y37029I203J0D01*G01*
G75*G03X9443Y37029I-203J0D01*G01*
X14443D02*G75*G03X14849Y37029I203J0D01*G01*
G75*G03X14443Y37029I-203J0D01*G01*
X17417Y22975D02*G75*G03X17823Y22975I203J0D01*G01*
G75*G03X17417Y22975I-203J0D01*G01*
X22417D02*G75*G03X22823Y22975I203J0D01*G01*
G75*G03X22417Y22975I-203J0D01*G01*
X56097Y25675D02*G75*G03X56503Y25675I203J0D01*G01*
G75*G03X56097Y25675I-203J0D01*G01*
Y20675D02*G75*G03X56503Y20675I203J0D01*G01*
G75*G03X56097Y20675I-203J0D01*G01*
X1167Y22975D02*G75*G03X1573Y22975I203J0D01*G01*
G75*G03X1167Y22975I-203J0D01*G01*
X6167D02*G75*G03X6573Y22975I203J0D01*G01*
G75*G03X6167Y22975I-203J0D01*G01*
X66343Y13621D02*G75*G03X66749Y13621I203J0D01*G01*
G75*G03X66343Y13621I-203J0D01*G01*
X60343D02*G75*G03X60749Y13621I203J0D01*G01*
G75*G03X60343Y13621I-203J0D01*G01*
X66393Y16221D02*G75*G03X66799Y16221I203J0D01*G01*
G75*G03X66393Y16221I-203J0D01*G01*
X60393D02*G75*G03X60799Y16221I203J0D01*G01*
G75*G03X60393Y16221I-203J0D01*G01*
X63143Y34713D02*G75*G03X63549Y34713I203J0D01*G01*
G75*G03X63143Y34713I-203J0D01*G01*
Y28713D02*G75*G03X63549Y28713I203J0D01*G01*
G75*G03X63143Y28713I-203J0D01*G01*
X56080Y34320D02*G75*G03X56486Y34320I203J0D01*G01*
G75*G03X56080Y34320I-203J0D01*G01*
Y28320D02*G75*G03X56486Y28320I203J0D01*G01*
G75*G03X56080Y28320I-203J0D01*G01*
X53650Y29436D02*G75*G03X54057Y29436I203J0D01*G01*
G75*G03X53650Y29436I-203J0D01*G01*
Y34436D02*G75*G03X54057Y34436I203J0D01*G01*
G75*G03X53650Y34436I-203J0D01*G01*
X66047Y47225D02*G75*G03X66453Y47225I203J0D01*G01*
G75*G03X66047Y47225I-203J0D01*G01*
Y37065D02*G75*G03X66453Y37065I203J0D01*G01*
G75*G03X66047Y37065I-203J0D01*G01*
X58531Y33813D02*G75*G03X58937Y33813I203J0D01*G01*
G75*G03X58531Y33813I-203J0D01*G01*
Y23653D02*G75*G03X58937Y23653I203J0D01*G01*
G75*G03X58531Y23653I-203J0D01*G01*
X34367Y48145D02*G75*G03X34773Y48145I203J0D01*G01*
G75*G03X34367Y48145I-203J0D01*G01*
X40367D02*G75*G03X40773Y48145I203J0D01*G01*
G75*G03X40367Y48145I-203J0D01*G01*
X15151Y25321D02*G75*G03X15557Y25321I203J0D01*G01*
G75*G03X15151Y25321I-203J0D01*G01*
X10151D02*G75*G03X10557Y25321I203J0D01*G01*
G75*G03X10151Y25321I-203J0D01*G01*
X35917Y33975D02*G75*G03X36323Y33975I203J0D01*G01*
G75*G03X35917Y33975I-203J0D01*G01*
Y27975D02*G75*G03X36323Y27975I203J0D01*G01*
G75*G03X35917Y27975I-203J0D01*G01*
X61297Y42225D02*G75*G03X61703Y42225I203J0D01*G01*
G75*G03X61297Y42225I-203J0D01*G01*
Y47225D02*G75*G03X61703Y47225I203J0D01*G01*
G75*G03X61297Y47225I-203J0D01*G01*
X3607Y91122D02*G75*G03X4013Y91122I203J0D01*G01*
G75*G03X3607Y91122I-203J0D01*G01*
X34290Y91694D02*Y91504D01*
X34671Y91122D01*
X35052Y91504D01*
Y91694D02*Y91504D01*
X34671Y91122D02*Y90170D01*
X35509Y90932D02*X36081D01*
X35509Y90170D02*X36271D01*
X35509Y91694D02*Y90170D01*
Y91694D02*X36271D01*
X37490D02*X37681Y91504D01*
X36919Y91694D02*X37490D01*
X36728Y91504D02*X36919Y91694D01*
X36728Y91504D02*Y91122D01*
X36919Y90932D01*
X37490D01*
X37681Y90742D01*
Y90360D01*
X37490Y90170D02*X37681Y90360D01*
X36919Y90170D02*X37490D01*
X36728Y90360D02*X36919Y90170D01*
X24892Y90932D02*X25654Y91694D01*
X24892Y90932D02*X25844D01*
X25654Y91694D02*Y90170D01*
X26302Y90360D02*X26492Y90170D01*
X26302Y91504D02*Y90360D01*
Y91504D02*X26492Y91694D01*
X26873D01*
X27064Y91504D01*
Y90360D01*
X26873Y90170D02*X27064Y90360D01*
X26492Y90170D02*X26873D01*
X26302Y90551D02*X27064Y91313D01*
X11430Y90360D02*X11620Y90170D01*
X11430Y91504D02*Y90360D01*
Y91504D02*X11620Y91694D01*
X12002D01*
X12192Y91504D01*
Y90360D01*
X12002Y90170D02*X12192Y90360D01*
X11620Y90170D02*X12002D01*
X11430Y90551D02*X12192Y91313D01*
X12649Y90170D02*X12840D01*
X13297Y90360D02*X13487Y90170D01*
X13297Y91504D02*Y90360D01*
Y91504D02*X13487Y91694D01*
X13868D01*
X14059Y91504D01*
Y90360D01*
X13868Y90170D02*X14059Y90360D01*
X13487Y90170D02*X13868D01*
X13297Y90551D02*X14059Y91313D01*
X14516Y91504D02*X14707Y91694D01*
X15088D01*
X15278Y91504D01*
Y90360D01*
X15088Y90170D02*X15278Y90360D01*
X14707Y90170D02*X15088D01*
X14516Y90360D02*X14707Y90170D01*
Y90932D02*X15278D01*
X15735Y90360D02*X15926Y90170D01*
X15735Y91504D02*Y90360D01*
Y91504D02*X15926Y91694D01*
X16307D01*
X16497Y91504D01*
Y90360D01*
X16307Y90170D02*X16497Y90360D01*
X15926Y90170D02*X16307D01*
X15735Y90551D02*X16497Y91313D01*
X24945Y42780D02*X25555Y42170D01*
X24945D02*X25555Y42780D01*
X24945Y40240D02*X25555Y39630D01*
X24945D02*X25555Y40240D01*
X24945Y37700D02*X25555Y37090D01*
X24945D02*X25555Y37700D01*
X24945Y35160D02*X25555Y34550D01*
X24945D02*X25555Y35160D01*
X32565D02*X33175Y34550D01*
X32565D02*X33175Y35160D01*
X32565Y37700D02*X33175Y37090D01*
X32565D02*X33175Y37700D01*
X32565Y40240D02*X33175Y39630D01*
X32565D02*X33175Y40240D01*
X32565Y42780D02*X33175Y42170D01*
X32565D02*X33175Y42780D01*
X3505Y95237D02*X4115Y94628D01*
X3505D02*X4115Y95237D01*
X34290Y95504D02*Y95314D01*
X34671Y94932D01*
X35052Y95314D01*
Y95504D02*Y95314D01*
X34671Y94932D02*Y93980D01*
X35509Y94742D02*X36081D01*
X35509Y93980D02*X36271D01*
X35509Y95504D02*Y93980D01*
Y95504D02*X36271D01*
X37490D02*X37681Y95314D01*
X36919Y95504D02*X37490D01*
X36728Y95314D02*X36919Y95504D01*
X36728Y95314D02*Y94932D01*
X36919Y94742D01*
X37490D01*
X37681Y94552D01*
Y94170D01*
X37490Y93980D02*X37681Y94170D01*
X36919Y93980D02*X37490D01*
X36728Y94170D02*X36919Y93980D01*
X24892Y94170D02*X25082Y93980D01*
X24892Y94552D02*Y94170D01*
Y94552D02*X25082Y94742D01*
X25464D01*
X25654Y94552D01*
Y94170D01*
X25464Y93980D02*X25654Y94170D01*
X25082Y93980D02*X25464D01*
X24892Y94932D02*X25082Y94742D01*
X24892Y95314D02*Y94932D01*
Y95314D02*X25082Y95504D01*
X25464D01*
X25654Y95314D01*
Y94932D01*
X25464Y94742D02*X25654Y94932D01*
X11430Y94170D02*X11620Y93980D01*
X11430Y95314D02*Y94170D01*
Y95314D02*X11620Y95504D01*
X12002D01*
X12192Y95314D01*
Y94170D01*
X12002Y93980D02*X12192Y94170D01*
X11620Y93980D02*X12002D01*
X11430Y94361D02*X12192Y95123D01*
X12649Y93980D02*X12840D01*
X13297Y94170D02*X13487Y93980D01*
X13297Y95314D02*Y94170D01*
Y95314D02*X13487Y95504D01*
X13868D01*
X14059Y95314D01*
Y94170D01*
X13868Y93980D02*X14059Y94170D01*
X13487Y93980D02*X13868D01*
X13297Y94361D02*X14059Y95123D01*
X14516Y95314D02*X14707Y95504D01*
X15278D01*
X15469Y95314D01*
Y94932D01*
X14516Y93980D02*X15469Y94932D01*
X14516Y93980D02*X15469D01*
X15926Y94170D02*X16116Y93980D01*
X15926Y94552D02*Y94170D01*
Y94552D02*X16116Y94742D01*
X16497D01*
X16688Y94552D01*
Y94170D01*
X16497Y93980D02*X16688Y94170D01*
X16116Y93980D02*X16497D01*
X15926Y94932D02*X16116Y94742D01*
X15926Y95314D02*Y94932D01*
Y95314D02*X16116Y95504D01*
X16497D01*
X16688Y95314D01*
Y94932D01*
X16497Y94742D02*X16688Y94932D01*
X14120Y4631D02*Y3819D01*
X13714Y4225D02*X14526D01*
X3810Y99149D02*Y98336D01*
X3404Y98742D02*X4216D01*
X34290Y99314D02*Y99124D01*
X34671Y98742D01*
X35052Y99124D01*
Y99314D02*Y99124D01*
X34671Y98742D02*Y97790D01*
X35509Y98552D02*X36081D01*
X35509Y97790D02*X36271D01*
X35509Y99314D02*Y97790D01*
Y99314D02*X36271D01*
X37490D02*X37681Y99124D01*
X36919Y99314D02*X37490D01*
X36728Y99124D02*X36919Y99314D01*
X36728Y99124D02*Y98742D01*
X36919Y98552D01*
X37490D01*
X37681Y98362D01*
Y97980D01*
X37490Y97790D02*X37681Y97980D01*
X36919Y97790D02*X37490D01*
X36728Y97980D02*X36919Y97790D01*
X25082D02*X25464D01*
X25273Y99314D02*Y97790D01*
X24892Y98933D02*X25273Y99314D01*
X11430Y97980D02*X11620Y97790D01*
X11430Y99124D02*Y97980D01*
Y99124D02*X11620Y99314D01*
X12002D01*
X12192Y99124D01*
Y97980D01*
X12002Y97790D02*X12192Y97980D01*
X11620Y97790D02*X12002D01*
X11430Y98171D02*X12192Y98933D01*
X12649Y97790D02*X12840D01*
X13297Y97980D02*X13487Y97790D01*
X13297Y99124D02*Y97980D01*
Y99124D02*X13487Y99314D01*
X13868D01*
X14059Y99124D01*
Y97980D01*
X13868Y97790D02*X14059Y97980D01*
X13487Y97790D02*X13868D01*
X13297Y98171D02*X14059Y98933D01*
X14516Y99124D02*X14707Y99314D01*
X15278D01*
X15469Y99124D01*
Y98742D01*
X14516Y97790D02*X15469Y98742D01*
X14516Y97790D02*X15469D01*
X15926Y97980D02*X16116Y97790D01*
X15926Y99124D02*Y97980D01*
Y99124D02*X16116Y99314D01*
X16497D01*
X16688Y99124D01*
Y97980D01*
X16497Y97790D02*X16688Y97980D01*
X16116Y97790D02*X16497D01*
X15926Y98171D02*X16688Y98933D01*
X77891Y4367D02*Y3961D01*
Y4367D02*X78243Y4571D01*
X77891Y4367D02*X77539Y4571D01*
X84304Y1199D02*Y793D01*
Y1199D02*X84656Y1402D01*
X84304Y1199D02*X83951Y1402D01*
X79967Y4130D02*Y3724D01*
Y4130D02*X80319Y4333D01*
X79967Y4130D02*X79614Y4333D01*
X3810Y102552D02*Y102146D01*
Y102552D02*X4162Y102756D01*
X3810Y102552D02*X3458Y102756D01*
X34290Y103124D02*Y102934D01*
X34671Y102552D01*
X35052Y102934D01*
Y103124D02*Y102934D01*
X34671Y102552D02*Y101600D01*
X35509Y102362D02*X36081D01*
X35509Y101600D02*X36271D01*
X35509Y103124D02*Y101600D01*
Y103124D02*X36271D01*
X37490D02*X37681Y102934D01*
X36919Y103124D02*X37490D01*
X36728Y102934D02*X36919Y103124D01*
X36728Y102934D02*Y102552D01*
X36919Y102362D01*
X37490D01*
X37681Y102172D01*
Y101790D01*
X37490Y101600D02*X37681Y101790D01*
X36919Y101600D02*X37490D01*
X36728Y101790D02*X36919Y101600D01*
X24892Y102934D02*X25082Y103124D01*
X25464D01*
X25654Y102934D01*
Y101790D01*
X25464Y101600D02*X25654Y101790D01*
X25082Y101600D02*X25464D01*
X24892Y101790D02*X25082Y101600D01*
Y102362D02*X25654D01*
X11430Y101790D02*X11620Y101600D01*
X11430Y102934D02*Y101790D01*
Y102934D02*X11620Y103124D01*
X12002D01*
X12192Y102934D01*
Y101790D01*
X12002Y101600D02*X12192Y101790D01*
X11620Y101600D02*X12002D01*
X11430Y101981D02*X12192Y102743D01*
X12649Y101600D02*X12840D01*
X13297Y101790D02*X13487Y101600D01*
X13297Y102934D02*Y101790D01*
Y102934D02*X13487Y103124D01*
X13868D01*
X14059Y102934D01*
Y101790D01*
X13868Y101600D02*X14059Y101790D01*
X13487Y101600D02*X13868D01*
X13297Y101981D02*X14059Y102743D01*
X14707Y101600D02*X15088D01*
X14897Y103124D02*Y101600D01*
X14516Y102743D02*X14897Y103124D01*
X15545D02*X16307D01*
X15545D02*Y102362D01*
X15735Y102552D01*
X16116D01*
X16307Y102362D01*
Y101790D01*
X16116Y101600D02*X16307Y101790D01*
X15735Y101600D02*X16116D01*
X15545Y101790D02*X15735Y101600D01*
X762Y106934D02*X952Y106744D01*
X190Y106934D02*X762D01*
X0Y106744D02*X190Y106934D01*
X0Y106744D02*Y106362D01*
X190Y106172D01*
X762D01*
X952Y105982D01*
Y105600D01*
X762Y105410D02*X952Y105600D01*
X190Y105410D02*X762D01*
X0Y105600D02*X190Y105410D01*
X1410Y106172D02*Y105600D01*
X1600Y105410D01*
X2172Y106172D02*Y105029D01*
X1981Y104838D02*X2172Y105029D01*
X1600Y104838D02*X1981D01*
X1410Y105029D02*X1600Y104838D01*
Y105410D02*X1981D01*
X2172Y105600D01*
X2819Y105982D02*Y105410D01*
Y105982D02*X3010Y106172D01*
X3200D01*
X3391Y105982D01*
Y105410D01*
Y105982D02*X3581Y106172D01*
X3772D01*
X3962Y105982D01*
Y105410D01*
X2629Y106172D02*X2819Y105982D01*
X4420Y106934D02*Y105410D01*
Y105600D02*X4610Y105410D01*
X4991D01*
X5182Y105600D01*
Y105982D02*Y105600D01*
X4991Y106172D02*X5182Y105982D01*
X4610Y106172D02*X4991D01*
X4420Y105982D02*X4610Y106172D01*
X5639Y105982D02*Y105600D01*
Y105982D02*X5829Y106172D01*
X6210D01*
X6401Y105982D01*
Y105600D01*
X6210Y105410D02*X6401Y105600D01*
X5829Y105410D02*X6210D01*
X5639Y105600D02*X5829Y105410D01*
X6858Y106934D02*Y105600D01*
X7049Y105410D01*
X0Y104584D02*X7430D01*
X10604Y106934D02*Y105410D01*
X11176Y106934D02*X11366Y106744D01*
Y105600D01*
X11176Y105410D02*X11366Y105600D01*
X10414Y105410D02*X11176D01*
X10414Y106934D02*X11176D01*
X11824Y106553D02*Y106362D01*
Y105982D02*Y105410D01*
X12776Y106172D02*X12967Y105982D01*
X12395Y106172D02*X12776D01*
X12205Y105982D02*X12395Y106172D01*
X12205Y105982D02*Y105600D01*
X12395Y105410D01*
X12967Y106172D02*Y105600D01*
X13157Y105410D01*
X12395D02*X12776D01*
X12967Y105600D01*
X13805Y105982D02*Y105410D01*
Y105982D02*X13995Y106172D01*
X14186D01*
X14376Y105982D01*
Y105410D01*
Y105982D02*X14567Y106172D01*
X14757D01*
X14948Y105982D01*
Y105410D01*
X13614Y106172D02*X13805Y105982D01*
X15405Y105410D02*X15596D01*
X16739Y105600D02*X16929Y105410D01*
X16739Y106744D02*X16929Y106934D01*
X16739Y106744D02*Y105600D01*
X17386Y106934D02*X17767D01*
X17577D02*Y105410D01*
X17386D02*X17767D01*
X18415Y105982D02*Y105410D01*
Y105982D02*X18606Y106172D01*
X18796D01*
X18987Y105982D01*
Y105410D01*
X18225Y106172D02*X18415Y105982D01*
X19634Y106172D02*X20206D01*
X19444Y105982D02*X19634Y106172D01*
X19444Y105982D02*Y105600D01*
X19634Y105410D01*
X20206D01*
X20663Y106934D02*Y105410D01*
Y105982D02*X20853Y106172D01*
X21234D01*
X21425Y105982D01*
Y105410D01*
X21882Y106934D02*X22073Y106744D01*
Y105600D01*
X21882Y105410D02*X22073Y105600D01*
X10414Y104584D02*X22530D01*
X24320Y105410D02*X24892D01*
X24130Y105600D02*X24320Y105410D01*
X24130Y106744D02*Y105600D01*
Y106744D02*X24320Y106934D01*
X24892D01*
X25349Y105982D02*Y105600D01*
Y105982D02*X25540Y106172D01*
X25921D01*
X26111Y105982D01*
Y105600D01*
X25921Y105410D02*X26111Y105600D01*
X25540Y105410D02*X25921D01*
X25349Y105600D02*X25540Y105410D01*
X26568Y106172D02*Y105600D01*
X26759Y105410D01*
X27140D01*
X27330Y105600D01*
Y106172D02*Y105600D01*
X27978Y105982D02*Y105410D01*
Y105982D02*X28169Y106172D01*
X28359D01*
X28550Y105982D01*
Y105410D01*
X27788Y106172D02*X27978Y105982D01*
X29197Y106934D02*Y105600D01*
X29388Y105410D01*
X29007Y106362D02*X29388D01*
X24130Y104584D02*X29769D01*
X33210Y106934D02*Y105410D01*
X33020Y106934D02*X33782D01*
X33972Y106744D01*
Y106362D01*
X33782Y106172D02*X33972Y106362D01*
X33210Y106172D02*X33782D01*
X34430Y106934D02*Y105600D01*
X34620Y105410D01*
X35573Y106172D02*X35763Y105982D01*
X35192Y106172D02*X35573D01*
X35001Y105982D02*X35192Y106172D01*
X35001Y105982D02*Y105600D01*
X35192Y105410D01*
X35763Y106172D02*Y105600D01*
X35954Y105410D01*
X35192D02*X35573D01*
X35763Y105600D01*
X36601Y106934D02*Y105600D01*
X36792Y105410D01*
X36411Y106362D02*X36792D01*
X37363Y105410D02*X37935D01*
X37173Y105600D02*X37363Y105410D01*
X37173Y105982D02*Y105600D01*
Y105982D02*X37363Y106172D01*
X37744D01*
X37935Y105982D01*
X37173Y105791D02*X37935D01*
Y105982D02*Y105791D01*
X39154Y106934D02*Y105410D01*
X38964D02*X39154Y105600D01*
X38583Y105410D02*X38964D01*
X38392Y105600D02*X38583Y105410D01*
X38392Y105982D02*Y105600D01*
Y105982D02*X38583Y106172D01*
X38964D01*
X39154Y105982D01*
X39992Y106172D02*Y105982D01*
Y105600D02*Y105410D01*
X39611Y106744D02*Y106553D01*
Y106744D02*X39802Y106934D01*
X40183D01*
X40373Y106744D01*
Y106553D01*
X39992Y106172D02*X40373Y106553D01*
X33020Y104584D02*X40831D01*
X0Y110744D02*X762D01*
X381D02*Y109220D01*
X1219Y110744D02*Y109220D01*
Y109792D02*X1410Y109982D01*
X1791D01*
X1981Y109792D01*
Y109220D01*
X2629D02*X3200D01*
X2438Y109410D02*X2629Y109220D01*
X2438Y109792D02*Y109410D01*
Y109792D02*X2629Y109982D01*
X3010D01*
X3200Y109792D01*
X2438Y109601D02*X3200D01*
Y109792D02*Y109601D01*
X3848Y109792D02*Y109220D01*
Y109792D02*X4039Y109982D01*
X4420D01*
X3658D02*X3848Y109792D01*
X5067Y109220D02*X5639D01*
X4877Y109410D02*X5067Y109220D01*
X4877Y109792D02*Y109410D01*
Y109792D02*X5067Y109982D01*
X5448D01*
X5639Y109792D01*
X4877Y109601D02*X5639D01*
Y109792D02*Y109601D01*
X7353Y109982D02*X7544Y109792D01*
X6972Y109982D02*X7353D01*
X6782Y109792D02*X6972Y109982D01*
X6782Y109792D02*Y109410D01*
X6972Y109220D01*
X7544Y109982D02*Y109410D01*
X7734Y109220D01*
X6972D02*X7353D01*
X7544Y109410D01*
X8382Y109792D02*Y109220D01*
Y109792D02*X8573Y109982D01*
X8954D01*
X8192D02*X8382Y109792D01*
X9601Y109220D02*X10173D01*
X9411Y109410D02*X9601Y109220D01*
X9411Y109792D02*Y109410D01*
Y109792D02*X9601Y109982D01*
X9982D01*
X10173Y109792D01*
X9411Y109601D02*X10173D01*
Y109792D02*Y109601D01*
X11506Y109220D02*X11887D01*
X11697Y110744D02*Y109220D01*
X11316Y110363D02*X11697Y110744D01*
X12344Y110554D02*X12535Y110744D01*
X12916D01*
X13106Y110554D01*
Y109410D01*
X12916Y109220D02*X13106Y109410D01*
X12535Y109220D02*X12916D01*
X12344Y109410D02*X12535Y109220D01*
Y109982D02*X13106D01*
X15011Y110744D02*Y109220D01*
X14821D02*X15011Y109410D01*
X14440Y109220D02*X14821D01*
X14249Y109410D02*X14440Y109220D01*
X14249Y109792D02*Y109410D01*
Y109792D02*X14440Y109982D01*
X14821D01*
X15011Y109792D01*
X15469Y110363D02*Y110172D01*
Y109792D02*Y109220D01*
X16040Y110554D02*Y109220D01*
Y110554D02*X16231Y110744D01*
X16421D01*
X15850Y109982D02*X16231D01*
X16993Y110554D02*Y109220D01*
Y110554D02*X17183Y110744D01*
X17374D01*
X16802Y109982D02*X17183D01*
X17945Y109220D02*X18517D01*
X17755Y109410D02*X17945Y109220D01*
X17755Y109792D02*Y109410D01*
Y109792D02*X17945Y109982D01*
X18326D01*
X18517Y109792D01*
X17755Y109601D02*X18517D01*
Y109792D02*Y109601D01*
X19164Y109792D02*Y109220D01*
Y109792D02*X19355Y109982D01*
X19736D01*
X18974D02*X19164Y109792D01*
X20384Y109220D02*X20955D01*
X20193Y109410D02*X20384Y109220D01*
X20193Y109792D02*Y109410D01*
Y109792D02*X20384Y109982D01*
X20765D01*
X20955Y109792D01*
X20193Y109601D02*X20955D01*
Y109792D02*Y109601D01*
X21603Y109792D02*Y109220D01*
Y109792D02*X21793Y109982D01*
X21984D01*
X22174Y109792D01*
Y109220D01*
X21412Y109982D02*X21603Y109792D01*
X22822Y110744D02*Y109410D01*
X23012Y109220D01*
X22631Y110172D02*X23012D01*
X24841Y110744D02*Y109220D01*
X24651D02*X24841Y109410D01*
X24270Y109220D02*X24651D01*
X24079Y109410D02*X24270Y109220D01*
X24079Y109792D02*Y109410D01*
Y109792D02*X24270Y109982D01*
X24651D01*
X24841Y109792D01*
X25489D02*Y109220D01*
Y109792D02*X25679Y109982D01*
X26060D01*
X25298D02*X25489Y109792D01*
X26518Y110363D02*Y110172D01*
Y109792D02*Y109220D01*
X26899Y110744D02*Y109410D01*
X27089Y109220D01*
X27470Y110744D02*Y109410D01*
X27661Y109220D01*
X28918D02*X29489D01*
X29680Y109410D01*
X29489Y109601D02*X29680Y109410D01*
X28918Y109601D02*X29489D01*
X28727Y109792D02*X28918Y109601D01*
X28727Y109792D02*X28918Y109982D01*
X29489D01*
X29680Y109792D01*
X28727Y109410D02*X28918Y109220D01*
X30137Y110363D02*Y110172D01*
Y109792D02*Y109220D01*
X30518Y109982D02*X31280D01*
X30518Y109220D02*X31280Y109982D01*
X30518Y109220D02*X31280D01*
X31928D02*X32499D01*
X31737Y109410D02*X31928Y109220D01*
X31737Y109792D02*Y109410D01*
Y109792D02*X31928Y109982D01*
X32309D01*
X32499Y109792D01*
X31737Y109601D02*X32499D01*
Y109792D02*Y109601D01*
X33147Y109220D02*X33719D01*
X33909Y109410D01*
X33719Y109601D02*X33909Y109410D01*
X33147Y109601D02*X33719D01*
X32957Y109792D02*X33147Y109601D01*
X32957Y109792D02*X33147Y109982D01*
X33719D01*
X33909Y109792D01*
X32957Y109410D02*X33147Y109220D01*
X35052Y109982D02*Y109410D01*
X35243Y109220D01*
X35624D01*
X35814Y109410D01*
Y109982D02*Y109410D01*
X36462Y109220D02*X37033D01*
X37224Y109410D01*
X37033Y109601D02*X37224Y109410D01*
X36462Y109601D02*X37033D01*
X36271Y109792D02*X36462Y109601D01*
X36271Y109792D02*X36462Y109982D01*
X37033D01*
X37224Y109792D01*
X36271Y109410D02*X36462Y109220D01*
X37871D02*X38443D01*
X37681Y109410D02*X37871Y109220D01*
X37681Y109792D02*Y109410D01*
Y109792D02*X37871Y109982D01*
X38252D01*
X38443Y109792D01*
X37681Y109601D02*X38443D01*
Y109792D02*Y109601D01*
X39662Y110744D02*Y109220D01*
X39472D02*X39662Y109410D01*
X39091Y109220D02*X39472D01*
X38900Y109410D02*X39091Y109220D01*
X38900Y109792D02*Y109410D01*
Y109792D02*X39091Y109982D01*
X39472D01*
X39662Y109792D01*
X40805Y110363D02*Y110172D01*
Y109792D02*Y109220D01*
X41377Y109792D02*Y109220D01*
Y109792D02*X41567Y109982D01*
X41758D01*
X41948Y109792D01*
Y109220D01*
X41186Y109982D02*X41377Y109792D01*
X43282Y110744D02*Y109410D01*
X43472Y109220D01*
X43091Y110172D02*X43472D01*
X43853Y110744D02*Y109220D01*
Y109792D02*X44044Y109982D01*
X44425D01*
X44615Y109792D01*
Y109220D01*
X45072Y110363D02*Y110172D01*
Y109792D02*Y109220D01*
X45644D02*X46215D01*
X46406Y109410D01*
X46215Y109601D02*X46406Y109410D01*
X45644Y109601D02*X46215D01*
X45453Y109792D02*X45644Y109601D01*
X45453Y109792D02*X45644Y109982D01*
X46215D01*
X46406Y109792D01*
X45453Y109410D02*X45644Y109220D01*
X47549Y110744D02*Y109410D01*
X47739Y109220D01*
X48692Y109982D02*X48882Y109792D01*
X48311Y109982D02*X48692D01*
X48120Y109792D02*X48311Y109982D01*
X48120Y109792D02*Y109410D01*
X48311Y109220D01*
X48882Y109982D02*Y109410D01*
X49073Y109220D01*
X48311D02*X48692D01*
X48882Y109410D01*
X49530Y109982D02*Y109410D01*
X49721Y109220D01*
X50292Y109982D02*Y108839D01*
X50102Y108648D02*X50292Y108839D01*
X49721Y108648D02*X50102D01*
X49530Y108839D02*X49721Y108648D01*
Y109220D02*X50102D01*
X50292Y109410D01*
X50749Y109792D02*Y109410D01*
Y109792D02*X50940Y109982D01*
X51321D01*
X51511Y109792D01*
Y109410D01*
X51321Y109220D02*X51511Y109410D01*
X50940Y109220D02*X51321D01*
X50749Y109410D02*X50940Y109220D01*
X51968Y109982D02*Y109410D01*
X52159Y109220D01*
X52540D01*
X52730Y109410D01*
Y109982D02*Y109410D01*
X53378Y110744D02*Y109410D01*
X53569Y109220D01*
X53188Y110172D02*X53569D01*
X53950Y108839D02*X54331Y109220D01*
X55664D02*X56045D01*
X55855Y110744D02*Y109220D01*
X55474Y110363D02*X55855Y110744D01*
X56502Y109982D02*X57264Y110744D01*
X56502Y109982D02*X57455D01*
X57264Y110744D02*Y109220D01*
X57912Y109410D02*X58103Y109220D01*
X57912Y110554D02*Y109410D01*
Y110554D02*X58103Y110744D01*
X58484D01*
X58674Y110554D01*
Y109410D01*
X58484Y109220D02*X58674Y109410D01*
X58103Y109220D02*X58484D01*
X57912Y109601D02*X58674Y110363D01*
X59817Y110744D02*Y109220D01*
Y109792D02*X60008Y109982D01*
X60389D01*
X60579Y109792D01*
Y109220D01*
X61036Y109792D02*Y109410D01*
Y109792D02*X61227Y109982D01*
X61608D01*
X61798Y109792D01*
Y109410D01*
X61608Y109220D02*X61798Y109410D01*
X61227Y109220D02*X61608D01*
X61036Y109410D02*X61227Y109220D01*
X62255Y110744D02*Y109410D01*
X62446Y109220D01*
X63017D02*X63589D01*
X62827Y109410D02*X63017Y109220D01*
X62827Y109792D02*Y109410D01*
Y109792D02*X63017Y109982D01*
X63398D01*
X63589Y109792D01*
X62827Y109601D02*X63589D01*
Y109792D02*Y109601D01*
X64237Y109220D02*X64808D01*
X64999Y109410D01*
X64808Y109601D02*X64999Y109410D01*
X64237Y109601D02*X64808D01*
X64046Y109792D02*X64237Y109601D01*
X64046Y109792D02*X64237Y109982D01*
X64808D01*
X64999Y109792D01*
X64046Y109410D02*X64237Y109220D01*
X66332Y110744D02*Y109410D01*
X66523Y109220D01*
X66142Y110172D02*X66523D01*
X66904Y109792D02*Y109410D01*
Y109792D02*X67094Y109982D01*
X67475D01*
X67666Y109792D01*
Y109410D01*
X67475Y109220D02*X67666Y109410D01*
X67094Y109220D02*X67475D01*
X66904Y109410D02*X67094Y109220D01*
X68313Y110744D02*Y109410D01*
X68504Y109220D01*
X68123Y110172D02*X68504D01*
X69456Y109982D02*X69647Y109792D01*
X69075Y109982D02*X69456D01*
X68885Y109792D02*X69075Y109982D01*
X68885Y109792D02*Y109410D01*
X69075Y109220D01*
X69647Y109982D02*Y109410D01*
X69837Y109220D01*
X69075D02*X69456D01*
X69647Y109410D01*
X70295Y110744D02*Y109410D01*
X70485Y109220D01*
G54D128*X0Y53975D02*X85496D01*
X0D02*Y0D01*
X85496Y53975D02*Y0D01*
X0D02*X85496D01*
G54D127*X50800Y57404D02*Y55880D01*
Y57404D02*X51372Y56832D01*
X51943Y57404D01*
Y55880D01*
X52972Y56642D02*X53162Y56452D01*
X52591Y56642D02*X52972D01*
X52400Y56452D02*X52591Y56642D01*
X52400Y56452D02*Y56070D01*
X52591Y55880D01*
X53162Y56642D02*Y56070D01*
X53353Y55880D01*
X52591D02*X52972D01*
X53162Y56070D01*
X53810Y56642D02*X54572Y55880D01*
X53810D02*X54572Y56642D01*
X55029Y57023D02*Y56832D01*
Y56452D02*Y55880D01*
X55601Y56452D02*Y55880D01*
Y56452D02*X55791Y56642D01*
X55982D01*
X56172Y56452D01*
Y55880D01*
Y56452D02*X56363Y56642D01*
X56553D01*
X56744Y56452D01*
Y55880D01*
X55410Y56642D02*X55601Y56452D01*
X57201Y56642D02*Y56070D01*
X57391Y55880D01*
X57772D01*
X57963Y56070D01*
Y56642D02*Y56070D01*
X58611Y56452D02*Y55880D01*
Y56452D02*X58801Y56642D01*
X58992D01*
X59182Y56452D01*
Y55880D01*
Y56452D02*X59373Y56642D01*
X59563D01*
X59754Y56452D01*
Y55880D01*
X58420Y56642D02*X58611Y56452D01*
X61087Y57404D02*Y55880D01*
X61659Y57404D02*X61849Y57214D01*
Y56070D01*
X61659Y55880D02*X61849Y56070D01*
X60897Y55880D02*X61659D01*
X60897Y57404D02*X61659D01*
X62306Y57023D02*Y56832D01*
Y56452D02*Y55880D01*
X62878Y56452D02*Y55880D01*
Y56452D02*X63068Y56642D01*
X63259D01*
X63449Y56452D01*
Y55880D01*
Y56452D02*X63640Y56642D01*
X63830D01*
X64021Y56452D01*
Y55880D01*
X62687Y56642D02*X62878Y56452D01*
X64668Y55880D02*X65240D01*
X64478Y56070D02*X64668Y55880D01*
X64478Y56452D02*Y56070D01*
Y56452D02*X64668Y56642D01*
X65049D01*
X65240Y56452D01*
X64478Y56261D02*X65240D01*
Y56452D02*Y56261D01*
X65888Y56452D02*Y55880D01*
Y56452D02*X66078Y56642D01*
X66269D01*
X66459Y56452D01*
Y55880D01*
X65697Y56642D02*X65888Y56452D01*
X67107Y55880D02*X67678D01*
X67869Y56070D01*
X67678Y56261D02*X67869Y56070D01*
X67107Y56261D02*X67678D01*
X66916Y56452D02*X67107Y56261D01*
X66916Y56452D02*X67107Y56642D01*
X67678D01*
X67869Y56452D01*
X66916Y56070D02*X67107Y55880D01*
X68326Y57023D02*Y56832D01*
Y56452D02*Y55880D01*
X68707Y56452D02*Y56070D01*
Y56452D02*X68898Y56642D01*
X69279D01*
X69469Y56452D01*
Y56070D01*
X69279Y55880D02*X69469Y56070D01*
X68898Y55880D02*X69279D01*
X68707Y56070D02*X68898Y55880D01*
X70117Y56452D02*Y55880D01*
Y56452D02*X70307Y56642D01*
X70498D01*
X70688Y56452D01*
Y55880D01*
X69926Y56642D02*X70117Y56452D01*
X71336Y55880D02*X71907D01*
X72098Y56070D01*
X71907Y56261D02*X72098Y56070D01*
X71336Y56261D02*X71907D01*
X71145Y56452D02*X71336Y56261D01*
X71145Y56452D02*X71336Y56642D01*
X71907D01*
X72098Y56452D01*
X71145Y56070D02*X71336Y55880D01*
X72555Y56832D02*X72746D01*
X72555Y56452D02*X72746D01*
X73889Y57214D02*X74079Y57404D01*
X74460D01*
X74651Y57214D01*
Y56070D01*
X74460Y55880D02*X74651Y56070D01*
X74079Y55880D02*X74460D01*
X73889Y56070D02*X74079Y55880D01*
Y56642D02*X74651D01*
X75108Y57214D02*X75298Y57404D01*
X75679D01*
X75870Y57214D01*
Y56070D01*
X75679Y55880D02*X75870Y56070D01*
X75298Y55880D02*X75679D01*
X75108Y56070D02*X75298Y55880D01*
Y56642D02*X75870D01*
X76899Y57404D02*X77089Y57214D01*
X76518Y57404D02*X76899D01*
X76327Y57214D02*X76518Y57404D01*
X76327Y57214D02*Y56070D01*
X76518Y55880D01*
X76899Y56642D02*X77089Y56452D01*
X76327Y56642D02*X76899D01*
X76518Y55880D02*X76899D01*
X77089Y56070D01*
Y56452D02*Y56070D01*
X78118Y57404D02*X78308Y57214D01*
X77737Y57404D02*X78118D01*
X77546Y57214D02*X77737Y57404D01*
X77546Y57214D02*Y56070D01*
X77737Y55880D01*
X78118Y56642D02*X78308Y56452D01*
X77546Y56642D02*X78118D01*
X77737Y55880D02*X78118D01*
X78308Y56070D01*
Y56452D02*Y56070D01*
X78765Y55880D02*X78956D01*
X79413Y56070D02*X79604Y55880D01*
X79413Y57214D02*Y56070D01*
Y57214D02*X79604Y57404D01*
X79985D01*
X80175Y57214D01*
Y56070D01*
X79985Y55880D02*X80175Y56070D01*
X79604Y55880D02*X79985D01*
X79413Y56261D02*X80175Y57023D01*
X80632Y56070D02*X80823Y55880D01*
X80632Y57214D02*Y56070D01*
Y57214D02*X80823Y57404D01*
X81204D01*
X81394Y57214D01*
Y56070D01*
X81204Y55880D02*X81394Y56070D01*
X80823Y55880D02*X81204D01*
X80632Y56261D02*X81394Y57023D01*
X81852Y56070D02*X82042Y55880D01*
X81852Y57214D02*Y56070D01*
Y57214D02*X82042Y57404D01*
X82423D01*
X82614Y57214D01*
Y56070D01*
X82423Y55880D02*X82614Y56070D01*
X82042Y55880D02*X82423D01*
X81852Y56261D02*X82614Y57023D01*
X83071Y56070D02*X83261Y55880D01*
X83071Y57214D02*Y56070D01*
Y57214D02*X83261Y57404D01*
X83642D01*
X83833Y57214D01*
Y56070D01*
X83642Y55880D02*X83833Y56070D01*
X83261Y55880D02*X83642D01*
X83071Y56261D02*X83833Y57023D01*
X84290Y56070D02*X84480Y55880D01*
X84290Y57214D02*Y56070D01*
Y57214D02*X84480Y57404D01*
X84861D01*
X85052Y57214D01*
Y56070D01*
X84861Y55880D02*X85052Y56070D01*
X84480Y55880D02*X84861D01*
X84290Y56261D02*X85052Y57023D01*
X85509Y56070D02*X85700Y55880D01*
X85509Y57214D02*Y56070D01*
Y57214D02*X85700Y57404D01*
X86081D01*
X86271Y57214D01*
Y56070D01*
X86081Y55880D02*X86271Y56070D01*
X85700Y55880D02*X86081D01*
X85509Y56261D02*X86271Y57023D01*
X87605Y56452D02*Y55880D01*
Y56452D02*X87795Y56642D01*
X87986D01*
X88176Y56452D01*
Y55880D01*
Y56452D02*X88367Y56642D01*
X88557D01*
X88748Y56452D01*
Y55880D01*
X87414Y56642D02*X87605Y56452D01*
X89205Y57023D02*Y56832D01*
Y56452D02*Y55880D01*
X89586Y57404D02*Y56070D01*
X89776Y55880D01*
X90348D02*X90919D01*
X91110Y56070D01*
X90919Y56261D02*X91110Y56070D01*
X90348Y56261D02*X90919D01*
X90157Y56452D02*X90348Y56261D01*
X90157Y56452D02*X90348Y56642D01*
X90919D01*
X91110Y56452D01*
X90157Y56070D02*X90348Y55880D01*
X92253Y56642D02*Y56070D01*
X92443Y55880D01*
X92634D01*
X92824Y56070D01*
Y56642D02*Y56070D01*
X93015Y55880D01*
X93205D01*
X93396Y56070D01*
Y56642D02*Y56070D01*
X93853Y57023D02*Y56832D01*
Y56452D02*Y55880D01*
X94996Y57404D02*Y55880D01*
X94806D02*X94996Y56070D01*
X94425Y55880D02*X94806D01*
X94234Y56070D02*X94425Y55880D01*
X94234Y56452D02*Y56070D01*
Y56452D02*X94425Y56642D01*
X94806D01*
X94996Y56452D01*
X95644Y55880D02*X96215D01*
X95453Y56070D02*X95644Y55880D01*
X95453Y56452D02*Y56070D01*
Y56452D02*X95644Y56642D01*
X96025D01*
X96215Y56452D01*
X95453Y56261D02*X96215D01*
Y56452D02*Y56261D01*
X96672Y55499D02*X97053Y55880D01*
X98196Y57214D02*X98387Y57404D01*
X98958D01*
X99149Y57214D01*
Y56832D01*
X98196Y55880D02*X99149Y56832D01*
X98196Y55880D02*X99149D01*
X99797D02*X100178D01*
X99987Y57404D02*Y55880D01*
X99606Y57023D02*X99987Y57404D01*
X100635Y57214D02*X100825Y57404D01*
X101397D01*
X101587Y57214D01*
Y56832D01*
X100635Y55880D02*X101587Y56832D01*
X100635Y55880D02*X101587D01*
X102045Y57404D02*X102807D01*
X102045D02*Y56642D01*
X102235Y56832D01*
X102616D01*
X102807Y56642D01*
Y56070D01*
X102616Y55880D02*X102807Y56070D01*
X102235Y55880D02*X102616D01*
X102045Y56070D02*X102235Y55880D01*
X103264D02*X103454D01*
X103911Y56070D02*X104102Y55880D01*
X103911Y57214D02*Y56070D01*
Y57214D02*X104102Y57404D01*
X104483D01*
X104673Y57214D01*
Y56070D01*
X104483Y55880D02*X104673Y56070D01*
X104102Y55880D02*X104483D01*
X103911Y56261D02*X104673Y57023D01*
X105131Y56070D02*X105321Y55880D01*
X105131Y57214D02*Y56070D01*
Y57214D02*X105321Y57404D01*
X105702D01*
X105893Y57214D01*
Y56070D01*
X105702Y55880D02*X105893Y56070D01*
X105321Y55880D02*X105702D01*
X105131Y56261D02*X105893Y57023D01*
X106350Y56070D02*X106540Y55880D01*
X106350Y57214D02*Y56070D01*
Y57214D02*X106540Y57404D01*
X106921D01*
X107112Y57214D01*
Y56070D01*
X106921Y55880D02*X107112Y56070D01*
X106540Y55880D02*X106921D01*
X106350Y56261D02*X107112Y57023D01*
X107569Y56070D02*X107760Y55880D01*
X107569Y57214D02*Y56070D01*
Y57214D02*X107760Y57404D01*
X108141D01*
X108331Y57214D01*
Y56070D01*
X108141Y55880D02*X108331Y56070D01*
X107760Y55880D02*X108141D01*
X107569Y56261D02*X108331Y57023D01*
X108788Y56070D02*X108979Y55880D01*
X108788Y57214D02*Y56070D01*
Y57214D02*X108979Y57404D01*
X109360D01*
X109550Y57214D01*
Y56070D01*
X109360Y55880D02*X109550Y56070D01*
X108979Y55880D02*X109360D01*
X108788Y56261D02*X109550Y57023D01*
X110007Y56070D02*X110198Y55880D01*
X110007Y57214D02*Y56070D01*
Y57214D02*X110198Y57404D01*
X110579D01*
X110769Y57214D01*
Y56070D01*
X110579Y55880D02*X110769Y56070D01*
X110198Y55880D02*X110579D01*
X110007Y56261D02*X110769Y57023D01*
X112103Y56452D02*Y55880D01*
Y56452D02*X112293Y56642D01*
X112484D01*
X112674Y56452D01*
Y55880D01*
Y56452D02*X112865Y56642D01*
X113055D01*
X113246Y56452D01*
Y55880D01*
X111912Y56642D02*X112103Y56452D01*
X113703Y57023D02*Y56832D01*
Y56452D02*Y55880D01*
X114084Y57404D02*Y56070D01*
X114275Y55880D01*
X114846D02*X115418D01*
X115608Y56070D01*
X115418Y56261D02*X115608Y56070D01*
X114846Y56261D02*X115418D01*
X114656Y56452D02*X114846Y56261D01*
X114656Y56452D02*X114846Y56642D01*
X115418D01*
X115608Y56452D01*
X114656Y56070D02*X114846Y55880D01*
X116751Y57404D02*Y55880D01*
Y56452D02*X116942Y56642D01*
X117323D01*
X117513Y56452D01*
Y55880D01*
X117970Y57023D02*Y56832D01*
Y56452D02*Y55880D01*
X118923Y56642D02*X119113Y56452D01*
X118542Y56642D02*X118923D01*
X118351Y56452D02*X118542Y56642D01*
X118351Y56452D02*Y56070D01*
X118542Y55880D01*
X118923D01*
X119113Y56070D01*
X118351Y55499D02*X118542Y55308D01*
X118923D01*
X119113Y55499D01*
Y56642D02*Y55499D01*
X119571Y57404D02*Y55880D01*
Y56452D02*X119761Y56642D01*
X120142D01*
X120333Y56452D01*
Y55880D01*
X0Y-2413D02*X762D01*
X952Y-2222D01*
Y-1842D02*Y-2222D01*
X762Y-1651D02*X952Y-1842D01*
X190Y-1651D02*X762D01*
X190Y-889D02*Y-2413D01*
X0Y-889D02*X762D01*
X952Y-1080D01*
Y-1460D01*
X762Y-1651D02*X952Y-1460D01*
X1410Y-1842D02*Y-2222D01*
Y-1842D02*X1600Y-1651D01*
X1981D01*
X2172Y-1842D01*
Y-2222D01*
X1981Y-2413D02*X2172Y-2222D01*
X1600Y-2413D02*X1981D01*
X1410Y-2222D02*X1600Y-2413D01*
X3200Y-1651D02*X3391Y-1842D01*
X2819Y-1651D02*X3200D01*
X2629Y-1842D02*X2819Y-1651D01*
X2629Y-1842D02*Y-2222D01*
X2819Y-2413D01*
X3391Y-1651D02*Y-2222D01*
X3581Y-2413D01*
X2819D02*X3200D01*
X3391Y-2222D01*
X4229Y-1842D02*Y-2413D01*
Y-1842D02*X4420Y-1651D01*
X4801D01*
X4039D02*X4229Y-1842D01*
X6020Y-889D02*Y-2413D01*
X5829D02*X6020Y-2222D01*
X5448Y-2413D02*X5829D01*
X5258Y-2222D02*X5448Y-2413D01*
X5258Y-1842D02*Y-2222D01*
Y-1842D02*X5448Y-1651D01*
X5829D01*
X6020Y-1842D01*
X7163D02*Y-2222D01*
Y-1842D02*X7353Y-1651D01*
X7734D01*
X7925Y-1842D01*
Y-2222D01*
X7734Y-2413D02*X7925Y-2222D01*
X7353Y-2413D02*X7734D01*
X7163Y-2222D02*X7353Y-2413D01*
X8382Y-1651D02*Y-2222D01*
X8573Y-2413D01*
X8954D01*
X9144Y-2222D01*
Y-1651D02*Y-2222D01*
X9792Y-889D02*Y-2222D01*
X9982Y-2413D01*
X9601Y-1460D02*X9982D01*
X10363Y-889D02*Y-2222D01*
X10554Y-2413D01*
X10935Y-1270D02*Y-1460D01*
Y-1842D02*Y-2413D01*
X11506Y-1842D02*Y-2413D01*
Y-1842D02*X11697Y-1651D01*
X11887D01*
X12078Y-1842D01*
Y-2413D01*
X11316Y-1651D02*X11506Y-1842D01*
X12725Y-2413D02*X13297D01*
X12535Y-2222D02*X12725Y-2413D01*
X12535Y-1842D02*Y-2222D01*
Y-1842D02*X12725Y-1651D01*
X13106D01*
X13297Y-1842D01*
X12535Y-2032D02*X13297D01*
Y-1842D02*Y-2032D01*
X14440Y-1270D02*Y-1460D01*
Y-1842D02*Y-2413D01*
X15011D02*X15583D01*
X15773Y-2222D01*
X15583Y-2032D02*X15773Y-2222D01*
X15011Y-2032D02*X15583D01*
X14821Y-1842D02*X15011Y-2032D01*
X14821Y-1842D02*X15011Y-1651D01*
X15583D01*
X15773Y-1842D01*
X14821Y-2222D02*X15011Y-2413D01*
X17107Y-889D02*Y-2222D01*
X17297Y-2413D01*
X16916Y-1460D02*X17297D01*
X17678Y-889D02*Y-2413D01*
Y-1842D02*X17869Y-1651D01*
X18250D01*
X18440Y-1842D01*
Y-2413D01*
X19088D02*X19660D01*
X18898Y-2222D02*X19088Y-2413D01*
X18898Y-1842D02*Y-2222D01*
Y-1842D02*X19088Y-1651D01*
X19469D01*
X19660Y-1842D01*
X18898Y-2032D02*X19660D01*
Y-1842D02*Y-2032D01*
X20993Y-1651D02*X21565D01*
X20803Y-1842D02*X20993Y-1651D01*
X20803Y-1842D02*Y-2222D01*
X20993Y-2413D01*
X21565D01*
X22212D02*X22784D01*
X22022Y-2222D02*X22212Y-2413D01*
X22022Y-1842D02*Y-2222D01*
Y-1842D02*X22212Y-1651D01*
X22593D01*
X22784Y-1842D01*
X22022Y-2032D02*X22784D01*
Y-1842D02*Y-2032D01*
X23432Y-1842D02*Y-2413D01*
Y-1842D02*X23622Y-1651D01*
X23813D01*
X24003Y-1842D01*
Y-2413D01*
X23241Y-1651D02*X23432Y-1842D01*
X24651Y-889D02*Y-2222D01*
X24841Y-2413D01*
X24460Y-1460D02*X24841D01*
X25413Y-2413D02*X25984D01*
X25222Y-2222D02*X25413Y-2413D01*
X25222Y-1842D02*Y-2222D01*
Y-1842D02*X25413Y-1651D01*
X25794D01*
X25984Y-1842D01*
X25222Y-2032D02*X25984D01*
Y-1842D02*Y-2032D01*
X26632Y-1842D02*Y-2413D01*
Y-1842D02*X26822Y-1651D01*
X27203D01*
X26441D02*X26632Y-1842D01*
X27661Y-889D02*Y-2222D01*
X27851Y-2413D01*
X28232Y-1270D02*Y-1460D01*
Y-1842D02*Y-2413D01*
X28804Y-1842D02*Y-2413D01*
Y-1842D02*X28994Y-1651D01*
X29185D01*
X29375Y-1842D01*
Y-2413D01*
X28613Y-1651D02*X28804Y-1842D01*
X30023Y-2413D02*X30594D01*
X29832Y-2222D02*X30023Y-2413D01*
X29832Y-1842D02*Y-2222D01*
Y-1842D02*X30023Y-1651D01*
X30404D01*
X30594Y-1842D01*
X29832Y-2032D02*X30594D01*
Y-1842D02*Y-2032D01*
X31737Y-1842D02*Y-2222D01*
Y-1842D02*X31928Y-1651D01*
X32309D01*
X32499Y-1842D01*
Y-2222D01*
X32309Y-2413D02*X32499Y-2222D01*
X31928Y-2413D02*X32309D01*
X31737Y-2222D02*X31928Y-2413D01*
X33147Y-1080D02*Y-2413D01*
Y-1080D02*X33338Y-889D01*
X33528D01*
X32957Y-1651D02*X33338D01*
X34785Y-889D02*Y-2222D01*
X34976Y-2413D01*
X34595Y-1460D02*X34976D01*
X35357Y-889D02*Y-2413D01*
Y-1842D02*X35547Y-1651D01*
X35928D01*
X36119Y-1842D01*
Y-2413D01*
X36576Y-1270D02*Y-1460D01*
Y-1842D02*Y-2413D01*
X37148D02*X37719D01*
X37910Y-2222D01*
X37719Y-2032D02*X37910Y-2222D01*
X37148Y-2032D02*X37719D01*
X36957Y-1842D02*X37148Y-2032D01*
X36957Y-1842D02*X37148Y-1651D01*
X37719D01*
X37910Y-1842D01*
X36957Y-2222D02*X37148Y-2413D01*
X39053Y-2222D02*X39243Y-2413D01*
X39053Y-1842D02*Y-2222D01*
Y-1842D02*X39243Y-1651D01*
X39624D01*
X39815Y-1842D01*
Y-2222D01*
X39624Y-2413D02*X39815Y-2222D01*
X39243Y-2413D02*X39624D01*
X39053Y-1460D02*X39243Y-1651D01*
X39053Y-1080D02*Y-1460D01*
Y-1080D02*X39243Y-889D01*
X39624D01*
X39815Y-1080D01*
Y-1460D01*
X39624Y-1651D02*X39815Y-1460D01*
X40272Y-2413D02*X40462D01*
X40919Y-2222D02*X41110Y-2413D01*
X40919Y-1080D02*Y-2222D01*
Y-1080D02*X41110Y-889D01*
X41491D01*
X41681Y-1080D01*
Y-2222D01*
X41491Y-2413D02*X41681Y-2222D01*
X41110Y-2413D02*X41491D01*
X40919Y-2032D02*X41681Y-1270D01*
X42139Y-2222D02*X42329Y-2413D01*
X42139Y-1080D02*Y-2222D01*
Y-1080D02*X42329Y-889D01*
X42710D01*
X42901Y-1080D01*
Y-2222D01*
X42710Y-2413D02*X42901Y-2222D01*
X42329Y-2413D02*X42710D01*
X42139Y-2032D02*X42901Y-1270D01*
X43358Y-2222D02*X43548Y-2413D01*
X43358Y-1080D02*Y-2222D01*
Y-1080D02*X43548Y-889D01*
X43929D01*
X44120Y-1080D01*
Y-2222D01*
X43929Y-2413D02*X44120Y-2222D01*
X43548Y-2413D02*X43929D01*
X43358Y-2032D02*X44120Y-1270D01*
X44577Y-2222D02*X44768Y-2413D01*
X44577Y-1080D02*Y-2222D01*
Y-1080D02*X44768Y-889D01*
X45149D01*
X45339Y-1080D01*
Y-2222D01*
X45149Y-2413D02*X45339Y-2222D01*
X44768Y-2413D02*X45149D01*
X44577Y-2032D02*X45339Y-1270D01*
X45796Y-2222D02*X45987Y-2413D01*
X45796Y-1080D02*Y-2222D01*
Y-1080D02*X45987Y-889D01*
X46368D01*
X46558Y-1080D01*
Y-2222D01*
X46368Y-2413D02*X46558Y-2222D01*
X45987Y-2413D02*X46368D01*
X45796Y-2032D02*X46558Y-1270D01*
X47015Y-2222D02*X47206Y-2413D01*
X47015Y-1080D02*Y-2222D01*
Y-1080D02*X47206Y-889D01*
X47587D01*
X47777Y-1080D01*
Y-2222D01*
X47587Y-2413D02*X47777Y-2222D01*
X47206Y-2413D02*X47587D01*
X47015Y-2032D02*X47777Y-1270D01*
X49111Y-1842D02*Y-2413D01*
Y-1842D02*X49301Y-1651D01*
X49492D01*
X49682Y-1842D01*
Y-2413D01*
Y-1842D02*X49873Y-1651D01*
X50063D01*
X50254Y-1842D01*
Y-2413D01*
X48920Y-1651D02*X49111Y-1842D01*
X50711Y-1270D02*Y-1460D01*
Y-1842D02*Y-2413D01*
X51092Y-889D02*Y-2222D01*
X51283Y-2413D01*
X52540Y-1842D02*Y-2413D01*
Y-1842D02*X52730Y-1651D01*
X53111D01*
X52349D02*X52540Y-1842D01*
X53759Y-2413D02*X54331D01*
X53569Y-2222D02*X53759Y-2413D01*
X53569Y-1842D02*Y-2222D01*
Y-1842D02*X53759Y-1651D01*
X54140D01*
X54331Y-1842D01*
X53569Y-2032D02*X54331D01*
Y-1842D02*Y-2032D01*
X54978Y-1651D02*X55550D01*
X54788Y-1842D02*X54978Y-1651D01*
X54788Y-1842D02*Y-2222D01*
X54978Y-2413D01*
X55550D01*
X56198Y-889D02*Y-2222D01*
X56388Y-2413D01*
X56007Y-1460D02*X56388D01*
X57341Y-1651D02*X57531Y-1842D01*
X56960Y-1651D02*X57341D01*
X56769Y-1842D02*X56960Y-1651D01*
X56769Y-1842D02*Y-2222D01*
X56960Y-2413D01*
X57531Y-1651D02*Y-2222D01*
X57722Y-2413D01*
X56960D02*X57341D01*
X57531Y-2222D01*
X58369Y-1842D02*Y-2413D01*
Y-1842D02*X58560Y-1651D01*
X58750D01*
X58941Y-1842D01*
Y-2413D01*
X58179Y-1651D02*X58369Y-1842D01*
X59969Y-1651D02*X60160Y-1842D01*
X59588Y-1651D02*X59969D01*
X59398Y-1842D02*X59588Y-1651D01*
X59398Y-1842D02*Y-2222D01*
X59588Y-2413D01*
X59969D01*
X60160Y-2222D01*
X59398Y-2794D02*X59588Y-2984D01*
X59969D01*
X60160Y-2794D01*
Y-1651D02*Y-2794D01*
X60617Y-889D02*Y-2222D01*
X60808Y-2413D01*
X61379D02*X61951D01*
X61189Y-2222D02*X61379Y-2413D01*
X61189Y-1842D02*Y-2222D01*
Y-1842D02*X61379Y-1651D01*
X61760D01*
X61951Y-1842D01*
X61189Y-2032D02*X61951D01*
Y-1842D02*Y-2032D01*
X63094Y-1651D02*X63856D01*
X64999Y-2222D02*X65189Y-2413D01*
X64999Y-1080D02*Y-2222D01*
Y-1080D02*X65189Y-889D01*
X65570D01*
X65761Y-1080D01*
Y-2222D01*
X65570Y-2413D02*X65761Y-2222D01*
X65189Y-2413D02*X65570D01*
X64999Y-2032D02*X65761Y-1270D01*
X66218Y-2794D02*X66599Y-2413D01*
X67056Y-2222D02*X67247Y-2413D01*
X67056Y-1080D02*Y-2222D01*
Y-1080D02*X67247Y-889D01*
X67628D01*
X67818Y-1080D01*
Y-2222D01*
X67628Y-2413D02*X67818Y-2222D01*
X67247Y-2413D02*X67628D01*
X67056Y-2032D02*X67818Y-1270D01*
X69152Y-889D02*Y-2222D01*
X69342Y-2413D01*
X68961Y-1460D02*X69342D01*
X69723Y-1842D02*Y-2222D01*
Y-1842D02*X69914Y-1651D01*
X70295D01*
X70485Y-1842D01*
Y-2222D01*
X70295Y-2413D02*X70485Y-2222D01*
X69914Y-2413D02*X70295D01*
X69723Y-2222D02*X69914Y-2413D01*
X71628Y-1080D02*X71819Y-889D01*
X72200D01*
X72390Y-1080D01*
Y-2222D01*
X72200Y-2413D02*X72390Y-2222D01*
X71819Y-2413D02*X72200D01*
X71628Y-2222D02*X71819Y-2413D01*
Y-1651D02*X72390D01*
X72847Y-1080D02*X73038Y-889D01*
X73419D01*
X73609Y-1080D01*
Y-2222D01*
X73419Y-2413D02*X73609Y-2222D01*
X73038Y-2413D02*X73419D01*
X72847Y-2222D02*X73038Y-2413D01*
Y-1651D02*X73609D01*
X74638Y-889D02*X74828Y-1080D01*
X74257Y-889D02*X74638D01*
X74066Y-1080D02*X74257Y-889D01*
X74066Y-1080D02*Y-2222D01*
X74257Y-2413D01*
X74638Y-1651D02*X74828Y-1842D01*
X74066Y-1651D02*X74638D01*
X74257Y-2413D02*X74638D01*
X74828Y-2222D01*
Y-1842D02*Y-2222D01*
X75857Y-889D02*X76048Y-1080D01*
X75476Y-889D02*X75857D01*
X75286Y-1080D02*X75476Y-889D01*
X75286Y-1080D02*Y-2222D01*
X75476Y-2413D01*
X75857Y-1651D02*X76048Y-1842D01*
X75286Y-1651D02*X75857D01*
X75476Y-2413D02*X75857D01*
X76048Y-2222D01*
Y-1842D02*Y-2222D01*
X76505Y-2413D02*X76695D01*
X77153Y-2222D02*X77343Y-2413D01*
X77153Y-1080D02*Y-2222D01*
Y-1080D02*X77343Y-889D01*
X77724D01*
X77915Y-1080D01*
Y-2222D01*
X77724Y-2413D02*X77915Y-2222D01*
X77343Y-2413D02*X77724D01*
X77153Y-2032D02*X77915Y-1270D01*
X78372Y-2222D02*X78562Y-2413D01*
X78372Y-1080D02*Y-2222D01*
Y-1080D02*X78562Y-889D01*
X78943D01*
X79134Y-1080D01*
Y-2222D01*
X78943Y-2413D02*X79134Y-2222D01*
X78562Y-2413D02*X78943D01*
X78372Y-2032D02*X79134Y-1270D01*
X79591Y-2222D02*X79781Y-2413D01*
X79591Y-1080D02*Y-2222D01*
Y-1080D02*X79781Y-889D01*
X80162D01*
X80353Y-1080D01*
Y-2222D01*
X80162Y-2413D02*X80353Y-2222D01*
X79781Y-2413D02*X80162D01*
X79591Y-2032D02*X80353Y-1270D01*
X80810Y-2222D02*X81001Y-2413D01*
X80810Y-1080D02*Y-2222D01*
Y-1080D02*X81001Y-889D01*
X81382D01*
X81572Y-1080D01*
Y-2222D01*
X81382Y-2413D02*X81572Y-2222D01*
X81001Y-2413D02*X81382D01*
X80810Y-2032D02*X81572Y-1270D01*
X82029Y-2222D02*X82220Y-2413D01*
X82029Y-1080D02*Y-2222D01*
Y-1080D02*X82220Y-889D01*
X82601D01*
X82791Y-1080D01*
Y-2222D01*
X82601Y-2413D02*X82791Y-2222D01*
X82220Y-2413D02*X82601D01*
X82029Y-2032D02*X82791Y-1270D01*
X83249Y-2222D02*X83439Y-2413D01*
X83249Y-1080D02*Y-2222D01*
Y-1080D02*X83439Y-889D01*
X83820D01*
X84011Y-1080D01*
Y-2222D01*
X83820Y-2413D02*X84011Y-2222D01*
X83439Y-2413D02*X83820D01*
X83249Y-2032D02*X84011Y-1270D01*
X84468Y-2794D02*X84849Y-2413D01*
X85306Y-1080D02*X85497Y-889D01*
X86068D01*
X86259Y-1080D01*
Y-1460D01*
X85306Y-2413D02*X86259Y-1460D01*
X85306Y-2413D02*X86259D01*
X86906D02*X87287D01*
X87097Y-889D02*Y-2413D01*
X86716Y-1270D02*X87097Y-889D01*
X87744Y-1080D02*X87935Y-889D01*
X88506D01*
X88697Y-1080D01*
Y-1460D01*
X87744Y-2413D02*X88697Y-1460D01*
X87744Y-2413D02*X88697D01*
X89154Y-889D02*X89916D01*
X89154D02*Y-1651D01*
X89345Y-1460D01*
X89726D01*
X89916Y-1651D01*
Y-2222D01*
X89726Y-2413D02*X89916Y-2222D01*
X89345Y-2413D02*X89726D01*
X89154Y-2222D02*X89345Y-2413D01*
X90373D02*X90564D01*
X91021Y-2222D02*X91212Y-2413D01*
X91021Y-1080D02*Y-2222D01*
Y-1080D02*X91212Y-889D01*
X91593D01*
X91783Y-1080D01*
Y-2222D01*
X91593Y-2413D02*X91783Y-2222D01*
X91212Y-2413D02*X91593D01*
X91021Y-2032D02*X91783Y-1270D01*
X92240Y-2222D02*X92431Y-2413D01*
X92240Y-1080D02*Y-2222D01*
Y-1080D02*X92431Y-889D01*
X92812D01*
X93002Y-1080D01*
Y-2222D01*
X92812Y-2413D02*X93002Y-2222D01*
X92431Y-2413D02*X92812D01*
X92240Y-2032D02*X93002Y-1270D01*
X93459Y-2222D02*X93650Y-2413D01*
X93459Y-1080D02*Y-2222D01*
Y-1080D02*X93650Y-889D01*
X94031D01*
X94221Y-1080D01*
Y-2222D01*
X94031Y-2413D02*X94221Y-2222D01*
X93650Y-2413D02*X94031D01*
X93459Y-2032D02*X94221Y-1270D01*
X94679Y-2222D02*X94869Y-2413D01*
X94679Y-1080D02*Y-2222D01*
Y-1080D02*X94869Y-889D01*
X95250D01*
X95441Y-1080D01*
Y-2222D01*
X95250Y-2413D02*X95441Y-2222D01*
X94869Y-2413D02*X95250D01*
X94679Y-2032D02*X95441Y-1270D01*
X95898Y-2222D02*X96088Y-2413D01*
X95898Y-1080D02*Y-2222D01*
Y-1080D02*X96088Y-889D01*
X96469D01*
X96660Y-1080D01*
Y-2222D01*
X96469Y-2413D02*X96660Y-2222D01*
X96088Y-2413D02*X96469D01*
X95898Y-2032D02*X96660Y-1270D01*
X97117Y-2222D02*X97308Y-2413D01*
X97117Y-1080D02*Y-2222D01*
Y-1080D02*X97308Y-889D01*
X97689D01*
X97879Y-1080D01*
Y-2222D01*
X97689Y-2413D02*X97879Y-2222D01*
X97308Y-2413D02*X97689D01*
X97117Y-2032D02*X97879Y-1270D01*
X99213Y-1842D02*Y-2413D01*
Y-1842D02*X99403Y-1651D01*
X99594D01*
X99784Y-1842D01*
Y-2413D01*
Y-1842D02*X99975Y-1651D01*
X100165D01*
X100356Y-1842D01*
Y-2413D01*
X99022Y-1651D02*X99213Y-1842D01*
X100813Y-1270D02*Y-1460D01*
Y-1842D02*Y-2413D01*
X101194Y-889D02*Y-2222D01*
X101384Y-2413D01*
X101956D02*X102527D01*
X102718Y-2222D01*
X102527Y-2032D02*X102718Y-2222D01*
X101956Y-2032D02*X102527D01*
X101765Y-1842D02*X101956Y-2032D01*
X101765Y-1842D02*X101956Y-1651D01*
X102527D01*
X102718Y-1842D01*
X101765Y-2222D02*X101956Y-2413D01*
X50990Y61214D02*Y59690D01*
X51562Y61214D02*X51752Y61024D01*
Y59880D01*
X51562Y59690D02*X51752Y59880D01*
X50800Y59690D02*X51562D01*
X50800Y61214D02*X51562D01*
X52781Y60452D02*X52972Y60262D01*
X52400Y60452D02*X52781D01*
X52210Y60262D02*X52400Y60452D01*
X52210Y60262D02*Y59880D01*
X52400Y59690D01*
X52972Y60452D02*Y59880D01*
X53162Y59690D01*
X52400D02*X52781D01*
X52972Y59880D01*
X53810Y61214D02*Y59880D01*
X54000Y59690D01*
X53619Y60642D02*X54000D01*
X54572Y59690D02*X55143D01*
X54381Y59880D02*X54572Y59690D01*
X54381Y60262D02*Y59880D01*
Y60262D02*X54572Y60452D01*
X54953D01*
X55143Y60262D01*
X54381Y60071D02*X55143D01*
Y60262D02*Y60071D01*
X55601Y60642D02*X55791D01*
X55601Y60262D02*X55791D01*
X57696Y61214D02*X57887Y61024D01*
X57125Y61214D02*X57696D01*
X56934Y61024D02*X57125Y61214D01*
X56934Y61024D02*Y60642D01*
X57125Y60452D01*
X57696D01*
X57887Y60262D01*
Y59880D01*
X57696Y59690D02*X57887Y59880D01*
X57125Y59690D02*X57696D01*
X56934Y59880D02*X57125Y59690D01*
X58344Y60452D02*Y59880D01*
X58534Y59690D01*
X58915D01*
X59106Y59880D01*
Y60452D02*Y59880D01*
X59754Y60262D02*Y59690D01*
Y60262D02*X59944Y60452D01*
X60135D01*
X60325Y60262D01*
Y59690D01*
X59563Y60452D02*X59754Y60262D01*
X61468Y61024D02*X61659Y61214D01*
X62230D01*
X62421Y61024D01*
Y60642D01*
X61468Y59690D02*X62421Y60642D01*
X61468Y59690D02*X62421D01*
X62878Y59880D02*X63068Y59690D01*
X62878Y60262D02*Y59880D01*
Y60262D02*X63068Y60452D01*
X63449D01*
X63640Y60262D01*
Y59880D01*
X63449Y59690D02*X63640Y59880D01*
X63068Y59690D02*X63449D01*
X62878Y60642D02*X63068Y60452D01*
X62878Y61024D02*Y60642D01*
Y61024D02*X63068Y61214D01*
X63449D01*
X63640Y61024D01*
Y60642D01*
X63449Y60452D02*X63640Y60642D01*
X64783Y61214D02*X65354D01*
Y59880D01*
X65164Y59690D02*X65354Y59880D01*
X64973Y59690D02*X65164D01*
X64783Y59880D02*X64973Y59690D01*
X66383Y60452D02*X66573Y60262D01*
X66002Y60452D02*X66383D01*
X65811Y60262D02*X66002Y60452D01*
X65811Y60262D02*Y59880D01*
X66002Y59690D01*
X66573Y60452D02*Y59880D01*
X66764Y59690D01*
X66002D02*X66383D01*
X66573Y59880D01*
X67412Y60262D02*Y59690D01*
Y60262D02*X67602Y60452D01*
X67793D01*
X67983Y60262D01*
Y59690D01*
X67221Y60452D02*X67412Y60262D01*
X69126Y61024D02*X69317Y61214D01*
X69888D01*
X70079Y61024D01*
Y60642D01*
X69126Y59690D02*X70079Y60642D01*
X69126Y59690D02*X70079D01*
X70536Y59880D02*X70726Y59690D01*
X70536Y61024D02*Y59880D01*
Y61024D02*X70726Y61214D01*
X71107D01*
X71298Y61024D01*
Y59880D01*
X71107Y59690D02*X71298Y59880D01*
X70726Y59690D02*X71107D01*
X70536Y60071D02*X71298Y60833D01*
X71946Y59690D02*X72327D01*
X72136Y61214D02*Y59690D01*
X71755Y60833D02*X72136Y61214D01*
X72784Y59880D02*X72974Y59690D01*
X72784Y60262D02*Y59880D01*
Y60262D02*X72974Y60452D01*
X73355D01*
X73546Y60262D01*
Y59880D01*
X73355Y59690D02*X73546Y59880D01*
X72974Y59690D02*X73355D01*
X72784Y60642D02*X72974Y60452D01*
X72784Y61024D02*Y60642D01*
Y61024D02*X72974Y61214D01*
X73355D01*
X73546Y61024D01*
Y60642D01*
X73355Y60452D02*X73546Y60642D01*
X74879Y59690D02*X75260D01*
X75070Y61214D02*Y59690D01*
X74689Y60833D02*X75070Y61214D01*
X75908Y59690D02*X76289D01*
X76098Y61214D02*Y59690D01*
X75717Y60833D02*X76098Y61214D01*
X76746Y60642D02*X76937D01*
X76746Y60262D02*X76937D01*
X77394Y61024D02*X77584Y61214D01*
X78156D01*
X78346Y61024D01*
Y60642D01*
X77394Y59690D02*X78346Y60642D01*
X77394Y59690D02*X78346D01*
X78804D02*X79566Y60452D01*
Y61024D02*Y60452D01*
X79375Y61214D02*X79566Y61024D01*
X78994Y61214D02*X79375D01*
X78804Y61024D02*X78994Y61214D01*
X78804Y61024D02*Y60642D01*
X78994Y60452D01*
X79566D01*
X80023Y60642D02*X80213D01*
X80023Y60262D02*X80213D01*
X80670Y59880D02*X80861Y59690D01*
X80670Y61024D02*Y59880D01*
Y61024D02*X80861Y61214D01*
X81242D01*
X81432Y61024D01*
Y59880D01*
X81242Y59690D02*X81432Y59880D01*
X80861Y59690D02*X81242D01*
X80670Y60071D02*X81432Y60833D01*
X81890Y61024D02*X82080Y61214D01*
X82652D01*
X82842Y61024D01*
Y60642D01*
X81890Y59690D02*X82842Y60642D01*
X81890Y59690D02*X82842D01*
X84176Y61214D02*Y59690D01*
X83985Y61214D02*X84747D01*
X84938Y61024D01*
Y60642D01*
X84747Y60452D02*X84938Y60642D01*
X84176Y60452D02*X84747D01*
X85395Y61214D02*Y59690D01*
Y61214D02*X85966Y60642D01*
X86538Y61214D01*
Y59690D01*
X88443Y61214D02*X88633Y61024D01*
X87871Y61214D02*X88443D01*
X87681Y61024D02*X87871Y61214D01*
X87681Y61024D02*Y59880D01*
X87871Y59690D01*
X88443D01*
X88633Y59880D01*
Y60262D02*Y59880D01*
X88443Y60452D02*X88633Y60262D01*
X88062Y60452D02*X88443D01*
X89091Y61214D02*Y59690D01*
Y61214D02*X89662Y60642D01*
X90234Y61214D01*
Y59690D01*
X90691Y61214D02*X91453D01*
X91072D02*Y59690D01*
X92596Y61214D02*Y59880D01*
X92786Y59690D01*
X93167D01*
X93358Y59880D01*
Y61214D02*Y59880D01*
X93815Y61214D02*X94577D01*
X94196D02*Y59690D01*
X95225D02*X95796D01*
X95034Y59880D02*X95225Y59690D01*
X95034Y61024D02*Y59880D01*
Y61024D02*X95225Y61214D01*
X95796D01*
X50800Y64834D02*Y63500D01*
Y64834D02*X50990Y65024D01*
X51562D01*
X51752Y64834D01*
Y63500D01*
X50800Y64262D02*X51752D01*
X52210D02*Y63690D01*
X52400Y63500D01*
X52781D01*
X52972Y63690D01*
Y64262D02*Y63690D01*
X53619Y65024D02*Y63690D01*
X53810Y63500D01*
X53429Y64452D02*X53810D01*
X54191Y65024D02*Y63500D01*
Y64072D02*X54381Y64262D01*
X54762D01*
X54953Y64072D01*
Y63500D01*
X55410Y64072D02*Y63690D01*
Y64072D02*X55601Y64262D01*
X55982D01*
X56172Y64072D01*
Y63690D01*
X55982Y63500D02*X56172Y63690D01*
X55601Y63500D02*X55982D01*
X55410Y63690D02*X55601Y63500D01*
X56820Y64072D02*Y63500D01*
Y64072D02*X57010Y64262D01*
X57391D01*
X56629D02*X56820Y64072D01*
X57849Y64452D02*X58039D01*
X57849Y64072D02*X58039D01*
X59373Y64643D02*Y64452D01*
Y64072D02*Y63119D01*
X59182Y62928D02*X59373Y63119D01*
X59944Y63500D02*X60516D01*
X59754Y63690D02*X59944Y63500D01*
X59754Y64072D02*Y63690D01*
Y64072D02*X59944Y64262D01*
X60325D01*
X60516Y64072D01*
X59754Y63881D02*X60516D01*
Y64072D02*Y63881D01*
X61163Y64834D02*Y63500D01*
Y64834D02*X61354Y65024D01*
X61544D01*
X60973Y64262D02*X61354D01*
X62116Y64834D02*Y63500D01*
Y64834D02*X62306Y65024D01*
X62497D01*
X61925Y64262D02*X62306D01*
X50800Y68834D02*X51562D01*
X51181D02*Y67310D01*
X52019Y68453D02*Y68262D01*
Y67882D02*Y67310D01*
X52591Y68834D02*Y67500D01*
X52781Y67310D01*
X52400Y68262D02*X52781D01*
X53162Y68834D02*Y67500D01*
X53353Y67310D01*
X53924D02*X54496D01*
X53734Y67500D02*X53924Y67310D01*
X53734Y67882D02*Y67500D01*
Y67882D02*X53924Y68072D01*
X54305D01*
X54496Y67882D01*
X53734Y67691D02*X54496D01*
Y67882D02*Y67691D01*
X54953Y68262D02*X55143D01*
X54953Y67882D02*X55143D01*
X56286Y67500D02*X56477Y67310D01*
X56286Y68644D02*X56477Y68834D01*
X56286Y68644D02*Y67500D01*
X56934Y68072D02*Y67500D01*
X57125Y67310D01*
X57506D01*
X57696Y67500D01*
Y68072D02*Y67500D01*
X58344Y67882D02*Y67310D01*
Y67882D02*X58534Y68072D01*
X58725D01*
X58915Y67882D01*
Y67310D01*
X58153Y68072D02*X58344Y67882D01*
X59373Y68834D02*Y67310D01*
Y67882D02*X59944Y67310D01*
X59373Y67882D02*X59754Y68262D01*
X60592Y67882D02*Y67310D01*
Y67882D02*X60782Y68072D01*
X60973D01*
X61163Y67882D01*
Y67310D01*
X60401Y68072D02*X60592Y67882D01*
X61620D02*Y67500D01*
Y67882D02*X61811Y68072D01*
X62192D01*
X62382Y67882D01*
Y67500D01*
X62192Y67310D02*X62382Y67500D01*
X61811Y67310D02*X62192D01*
X61620Y67500D02*X61811Y67310D01*
X62840Y68072D02*Y67500D01*
X63030Y67310D01*
X63221D01*
X63411Y67500D01*
Y68072D02*Y67500D01*
X63602Y67310D01*
X63792D01*
X63983Y67500D01*
Y68072D02*Y67500D01*
X64630Y67882D02*Y67310D01*
Y67882D02*X64821Y68072D01*
X65011D01*
X65202Y67882D01*
Y67310D01*
X64440Y68072D02*X64630Y67882D01*
X65659Y68834D02*X65850Y68644D01*
Y67500D01*
X65659Y67310D02*X65850Y67500D01*
X66993Y68072D02*X67755D01*
X68898Y68834D02*Y67310D01*
Y68834D02*X69660D01*
X68898Y68072D02*X69469D01*
X70688D02*X70879Y67882D01*
X70307Y68072D02*X70688D01*
X70117Y67882D02*X70307Y68072D01*
X70117Y67882D02*Y67500D01*
X70307Y67310D01*
X70879Y68072D02*Y67500D01*
X71069Y67310D01*
X70307D02*X70688D01*
X70879Y67500D01*
X71526Y68834D02*Y67310D01*
Y67500D02*X71717Y67310D01*
X72098D01*
X72288Y67500D01*
Y67882D02*Y67500D01*
X72098Y68072D02*X72288Y67882D01*
X71717Y68072D02*X72098D01*
X71526Y67882D02*X71717Y68072D01*
X72936Y67882D02*Y67310D01*
Y67882D02*X73127Y68072D01*
X73508D01*
X72746D02*X72936Y67882D01*
X73965Y68453D02*Y68262D01*
Y67882D02*Y67310D01*
X74536Y68072D02*X75108D01*
X74346Y67882D02*X74536Y68072D01*
X74346Y67882D02*Y67500D01*
X74536Y67310D01*
X75108D01*
X76137Y68072D02*X76327Y67882D01*
X75756Y68072D02*X76137D01*
X75565Y67882D02*X75756Y68072D01*
X75565Y67882D02*Y67500D01*
X75756Y67310D01*
X76327Y68072D02*Y67500D01*
X76518Y67310D01*
X75756D02*X76137D01*
X76327Y67500D01*
X77165Y68834D02*Y67500D01*
X77356Y67310D01*
X76975Y68262D02*X77356D01*
X77737Y68453D02*Y68262D01*
Y67882D02*Y67310D01*
X78118Y67882D02*Y67500D01*
Y67882D02*X78308Y68072D01*
X78689D01*
X78880Y67882D01*
Y67500D01*
X78689Y67310D02*X78880Y67500D01*
X78308Y67310D02*X78689D01*
X78118Y67500D02*X78308Y67310D01*
X79527Y67882D02*Y67310D01*
Y67882D02*X79718Y68072D01*
X79908D01*
X80099Y67882D01*
Y67310D01*
X79337Y68072D02*X79527Y67882D01*
X81432Y68834D02*Y67310D01*
X82004Y68834D02*X82194Y68644D01*
Y67500D01*
X82004Y67310D02*X82194Y67500D01*
X81242Y67310D02*X82004D01*
X81242Y68834D02*X82004D01*
X82842Y67882D02*Y67310D01*
Y67882D02*X83033Y68072D01*
X83414D01*
X82652D02*X82842Y67882D01*
X84442Y68072D02*X84633Y67882D01*
X84061Y68072D02*X84442D01*
X83871Y67882D02*X84061Y68072D01*
X83871Y67882D02*Y67500D01*
X84061Y67310D01*
X84633Y68072D02*Y67500D01*
X84823Y67310D01*
X84061D02*X84442D01*
X84633Y67500D01*
X85281Y68072D02*Y67500D01*
X85471Y67310D01*
X85662D01*
X85852Y67500D01*
Y68072D02*Y67500D01*
X86043Y67310D01*
X86233D01*
X86424Y67500D01*
Y68072D02*Y67500D01*
X86881Y68453D02*Y68262D01*
Y67882D02*Y67310D01*
X87452Y67882D02*Y67310D01*
Y67882D02*X87643Y68072D01*
X87833D01*
X88024Y67882D01*
Y67310D01*
X87262Y68072D02*X87452Y67882D01*
X89052Y68072D02*X89243Y67882D01*
X88671Y68072D02*X89052D01*
X88481Y67882D02*X88671Y68072D01*
X88481Y67882D02*Y67500D01*
X88671Y67310D01*
X89052D01*
X89243Y67500D01*
X88481Y66929D02*X88671Y66738D01*
X89052D01*
X89243Y66929D01*
Y68072D02*Y66929D01*
M02*
